<svg xmlns="http://www.w3.org/2000/svg" viewBox="0 0 41 38" width="41" height="38"><defs><clipPath clipPathUnits="userSpaceOnUse" id="cp1"><path d="M0 0L41 0L41 38L0 38Z" /></clipPath></defs><style>tspan { white-space:pre }.shp0 { fill: #231f20 } </style><g clip-path="url(#cp1)"><path fill-rule="evenodd" class="shp0" d="M40.59 16.26C40.59 17.09 39.92 17.76 39.09 17.76L38.78 17.76L37.07 23.74C37.44 24.01 37.7 24.43 37.7 24.93C37.7 25.72 37.08 26.35 36.3 26.41L32.99 38L7.6 38L4.29 26.41C3.51 26.35 2.89 25.72 2.89 24.93C2.89 24.43 3.15 24.02 3.53 23.74L1.82 17.76L1.5 17.76C0.67 17.76 0 17.09 0 16.26C0 15.43 0.67 14.76 1.5 14.76L7.8 14.76L14.62 1.13C14.99 0.39 15.89 0.09 16.63 0.46C17.37 0.83 17.67 1.73 17.3 2.47L11.16 14.76L29.43 14.76L23.29 2.47C22.92 1.73 23.22 0.83 23.96 0.46C24.7 0.09 25.6 0.39 25.97 1.13L32.79 14.76L39.09 14.76C39.92 14.76 40.59 15.43 40.59 16.26ZM33.18 26.43L7.41 26.43L9.86 35L30.73 35L33.18 26.43ZM35.66 17.76L4.94 17.76L6.56 23.43L34.03 23.43L35.66 17.76Z" /></g></svg>