<svg xmlns="http://www.w3.org/2000/svg" viewBox="0 0 30 55" width="30" height="55"><defs><clipPath clipPathUnits="userSpaceOnUse" id="cp1"><path d="M0 0L30 0L30 55L0 55Z" /></clipPath></defs><style>tspan { white-space:pre }.shp0 { fill: #231f20 } </style><g clip-path="url(#cp1)"><path fill-rule="evenodd" class="shp0" d="M18.99 11.14C18.4 13.23 19.09 15.65 18.99 17.92C20.89 18.51 23.21 16.85 24.97 17.32C26.29 17.51 26.34 18.92 26.62 20.11C26.55 20.84 26.8 21.88 26.42 22.3C26.45 23.13 26.36 23.84 26 24.29C25.73 25.62 25.69 27.18 24.97 28.08C23.65 28.73 21.59 28.67 19.82 28.88C20.34 33.35 20.02 38.65 20.43 43.23L20.43 49.01C20.29 49.81 20.63 50.15 20.64 50.8C20.78 51.53 20.19 51.57 20.23 52.2C19.58 52.57 18.67 53.07 17.75 52.6C16.56 54.03 14 54.15 12.18 54.99C10.57 54.95 8.71 55.16 7.65 54.59L7.65 52.8C7.62 52.17 8.8 52.71 8.47 51.8C8.73 50.76 7.29 51.35 7.44 50.41C7.46 50.12 7.48 49.84 7.23 49.81C7.07 48.18 7.49 47.13 8.06 46.22C7.51 44.82 7.64 42.76 7.65 40.84C7.82 40.01 7.24 39.9 7.23 39.24C7.74 35.71 6.96 31.84 7.23 27.88C5.6 27.7 3.71 28.22 2.7 27.68C2.63 27.65 2.62 27.54 2.49 27.49C2.03 27.28 1.26 26.88 0.84 26.49C0.57 25.42 0.18 24.47 0.01 23.3C0.07 22.09 -0.21 20.56 0.43 19.91C2.81 19.69 5.23 19.51 7.23 18.92C7.04 18.04 7.02 17 6.82 16.13C6.98 12.21 6.08 8.14 7.23 4.96C7.43 4.96 7.4 4.72 7.44 4.57C9.97 2.02 12.72 -0.3 17.96 -0.22C19.33 -0.62 21.42 -0.33 23.12 -0.42C24.57 -0.09 25.99 0.26 27.45 0.58C27.98 0.93 28.34 1.45 28.89 1.78C28.95 2.18 29.45 2.17 29.51 2.57C29.8 2.7 29.54 3.34 29.92 3.37C29.8 5.64 29.47 7.71 28.69 9.35C27.31 9.95 25.38 10.01 23.32 9.95C21.89 10.35 20.48 10.79 18.99 11.14ZM15.49 11.54C15.66 10.84 16.04 10.34 16.11 9.55C16.59 9.42 16.66 8.89 17.14 8.75C19.15 8.1 20.94 7.24 23.12 6.76L26.21 6.76C26.05 5.47 26.73 5 26.63 3.77C23.75 2.47 17.94 2.88 14.46 3.37C13.17 4.12 11.94 4.93 10.74 5.76C10.62 6.5 9.9 6.67 10.13 7.76C10.39 8.31 10.55 7.13 11.15 7.36C11.18 6.85 11.85 6.96 12.39 6.96C12.3 8.99 11.17 10.03 10.95 11.94C10.58 12.31 10.39 12.86 9.92 13.14C9.79 15.08 10.18 17.51 9.71 19.12C10.2 19.91 10.93 20.46 10.74 21.91C10.54 21.91 10.58 22.15 10.54 22.31C9.1 23.11 6.23 22.53 4.14 22.7C3.9 23.13 4.13 24.48 4.35 25.1C6.69 25.48 9.62 24.1 10.74 25.69C10.99 26.28 10.61 27.04 10.74 28.08C10.87 28.82 10.41 30.14 11.15 30.28C11.33 29.65 11.76 29.26 12.19 28.88C12.41 28.3 12.76 27.84 13.63 27.88C14.76 28.47 14.04 30.25 13.63 31.08C13.35 31.54 13.29 32.21 13.01 32.67C13.13 33.2 12.16 33.68 12.81 34.06C13.07 33.26 13.63 32.74 14.66 32.67C15.14 33.32 14.77 34.54 14.46 35.06C14.2 35.74 14.01 36.49 13.63 37.05C13.32 38.61 12.72 39.89 11.98 41.04L11.98 41.64C11.78 41.64 11.82 41.88 11.77 42.04C11.57 42.04 11.61 42.28 11.57 42.43C11.27 42.56 11.59 42.68 11.57 42.43C11.77 42.43 11.73 42.19 11.77 42.04C11.98 42.03 11.93 41.79 11.98 41.64C12.59 41.43 12.59 40.63 13.63 40.84C14.44 41.83 13.41 43.4 13.01 44.43C12.69 45.78 11.96 46.73 11.57 48.01C11.87 48.39 12.7 48.25 12.6 49.01C12.62 49.96 12.21 50.5 11.98 51.2C13.22 51.14 14.02 50.65 15.07 50.4C15.9 50.16 16.58 50.93 16.72 50.2C16.25 49.99 16.65 48.95 16.52 48.41L16.52 42.43C16.6 41.95 16.14 42 16.31 41.44L16.31 34.46C16.23 33.98 16.69 34.03 16.52 33.47L16.52 30.47C16.82 30.1 16.53 29.16 16.93 28.88C17.21 28.28 16.83 28.17 16.93 27.29C17.42 26.9 17.62 26.22 18.17 25.89C19.15 26.1 20.76 25.59 22.08 25.5C22.58 23.98 23.12 22.51 23.12 20.51C21.33 20.97 19.31 21.22 16.93 21.11C16.92 20.92 16.68 20.95 16.52 20.91C16.2 20.49 15.92 20.02 15.69 19.51C15.75 16.73 15.33 14.42 15.49 11.54Z" /></g></svg>