<svg xmlns="http://www.w3.org/2000/svg" viewBox="0 0 69 69" width="69" height="69"><defs><clipPath clipPathUnits="userSpaceOnUse" id="cp1"><path d="M0 0L69 0L69 69L0 69Z" /></clipPath></defs><style>tspan { white-space:pre }.shp0 { fill: #2c2e35 } </style><g clip-path="url(#cp1)"><path class="shp0" d="M0.57 28.39C-0.19 32.54 -0.2 36.81 0.59 40.99L8.83 34.57L0.57 28.39ZM48.81 3.43C39.24 -0.99 27.92 -0.86 18.3 4.24L33.32 15.49L48.81 3.43ZM67.8 26.6L58.18 34.1L68.05 41.49C69.04 36.6 68.98 31.52 67.8 26.6ZM18.42 65.08C28.11 70.15 39.87 70.38 49.88 65.31L33.69 53.19L18.42 65.08ZM15.83 29.12L3.36 19.79C2.72 21.13 2.17 22.5 1.71 23.9L12.33 31.85L15.83 29.12ZM37.19 50.46L53.86 62.94C54.41 62.56 54.96 62.16 55.5 61.74C56.14 61.25 56.75 60.73 57.34 60.2L40.69 47.73L37.19 50.46ZM22.83 23.67L8 12.57C7.08 13.67 6.23 14.82 5.47 16.02L19.33 26.39L22.83 23.67ZM44.19 45.01L60.37 57.12C61.31 56.04 62.18 54.9 62.96 53.72L47.69 42.28L44.19 45.01ZM29.83 18.22L14.39 6.66C14.01 6.94 13.62 7.22 13.25 7.51C12.45 8.13 11.7 8.78 10.98 9.45L26.33 20.94L29.83 18.22ZM51.18 39.55L65.13 49.99C65.79 48.67 66.36 47.31 66.84 45.93L54.68 36.83L51.18 39.55ZM52.9 5.67L1.76 45.51C2.23 46.9 2.78 48.28 3.44 49.62L56.48 8.3C55.33 7.34 54.14 6.46 52.9 5.67ZM61.49 13.5C60.88 12.73 60.26 11.99 59.61 11.29L5.57 53.39C6.1 54.19 6.66 54.98 7.26 55.75C7.54 56.12 7.83 56.47 8.13 56.82L62.31 14.61C62.04 14.24 61.77 13.87 61.49 13.5ZM64.6 18.25L11.1 59.93C12.19 60.93 13.33 61.86 14.52 62.7L66.44 22.24C65.92 20.88 65.3 19.55 64.6 18.25Z" /></g></svg>