<svg viewBox="0 0 65 65" width="65" height="65">
<path d="M34.54 37.18L59.55 37.18L59.55 65L34.54 65L34.54 37.18ZM65.33 20.94L65.33 32.73L34.54 32.73L34.54 17.76L30.79 17.76L30.79 32.73L0 32.73L0 20.94C0 19.18 1.43 17.76 3.18 17.76L16.36 17.76C13.94 16.52 12.2 15.01 11.09 13.26C10.21 11.88 9.79 10.35 9.79 8.89C9.8 6.39 10.96 4.19 12.62 2.62C14.28 1.06 16.5 0.04 18.93 0.03C21.37 0.03 23.63 0.87 25.57 2.17C27.52 3.47 29.18 5.22 30.57 7.19C31.35 8.32 32.05 9.53 32.65 10.77C32.72 10.62 32.8 10.46 32.88 10.3C34.51 7.07 36.81 4.12 39.73 2.17C41.66 0.87 43.93 0.03 46.37 0.03C48.66 0.03 50.79 0.86 52.4 2.27C54.01 3.67 55.12 5.73 55.12 8.07C55.13 10.93 53.45 13.8 50.28 16.07C49.45 16.66 48.53 17.23 47.48 17.76L62.15 17.76C63.91 17.76 65.34 19.18 65.33 20.94ZM29.89 16.54C29.53 15.15 29 13.72 28.31 12.37C26.97 9.7 25.06 7.34 23.02 6C21.66 5.09 20.3 4.63 18.93 4.63L18.91 4.63C17.84 4.63 16.65 5.13 15.78 5.96C14.89 6.8 14.39 7.88 14.4 8.89C14.4 9.49 14.55 10.11 14.99 10.81C15.43 11.51 16.19 12.3 17.43 13.08C19.73 14.54 23.73 15.9 29.89 16.54ZM35.33 16.87C41.38 15.68 45.31 13.99 47.58 12.34C49.97 10.59 50.51 9.1 50.52 8.07C50.51 7.21 50.13 6.4 49.37 5.73C48.62 5.07 47.53 4.63 46.38 4.63L46.37 4.63C45 4.63 43.64 5.09 42.28 6C40.92 6.9 39.62 8.23 38.5 9.83C37.02 11.92 35.91 14.46 35.33 16.87ZM5.79 37.18L30.8 37.18L30.8 65L5.79 65L5.79 37.18Z" /></svg>