<svg viewBox="0 0 93 55" width="93" height="55">
<path d="M93.15 8.15L93.15 47.19C93.15 51.5 89.65 55 85.34 55L7.81 55C3.5 55 0 51.5 0 47.19L0 8.15C0 3.83 3.5 0.34 7.81 0.34L85.34 0.34C89.65 0.34 93.15 3.83 93.15 8.15ZM6.05 50.24L86.45 50.24L86.45 5.77L6.05 5.77L6.05 50.24Z" />
<path d="M13.86 13.58L78.65 13.58L78.65 42.43L13.86 42.43L13.86 13.58ZM35.95 28C35.95 33.88 40.7 38.63 46.58 38.63C52.45 38.63 57.21 33.88 57.21 28C57.21 22.14 52.45 17.38 46.58 17.38C40.7 17.38 35.95 22.14 35.95 28Z" /></svg>