<svg xmlns="http://www.w3.org/2000/svg" viewBox="0 0 44 43" width="44" height="43"><defs><clipPath clipPathUnits="userSpaceOnUse" id="cp1"><path d="M0 0L44 0L44 43L0 43Z" /></clipPath></defs><style>tspan { white-space:pre }.shp0 { fill: #231f20 } </style><g clip-path="url(#cp1)"><path fill-rule="evenodd" class="shp0" d="M43.23 39.05C43.19 39.67 42.66 39.8 42.77 40.57C42.58 41.03 42.71 41.82 42.32 42.09C37.37 42.92 31.18 43.02 25.77 42.54C19.91 42.69 14.6 42.58 8.92 43C7.97 42.98 7.4 42.59 6.64 42.39C5.31 42.31 3.84 42.35 2.84 41.94C2.14 41.16 1.99 39.85 1.47 38.9C1.29 37.62 0.87 36.56 0.56 35.4C1.16 29.65 1.34 22.1 0.41 16.58C0.52 13.93 0.23 11.7 0.26 9.14L0.26 7.16C0.16 6.65 0.45 5.75 0.11 5.49L0.11 3.67C0.48 3.36 -0.26 2.88 0.11 2.46C0.3 1.99 1.05 2.08 1.32 1.7C1.84 1.56 2.27 1.33 2.69 1.09C3.72 0.86 4.68 0.55 5.88 0.48C6.12 0.53 6.14 0.34 6.33 0.33L10.73 0.33C14.22 0.8 18.12 1.09 22.13 1.09C26.17 1.09 30.25 1.04 34.12 1.24C35.41 1.32 36.6 1.49 37.92 1.55C39 1.77 40.56 1.53 41.4 2C41.87 2.39 41.8 3.33 42.32 3.67C42.4 4.4 42.41 5.2 42.62 5.8C42.75 7.28 42.88 8.78 42.92 10.35C42.84 15.05 43.5 19.83 43.53 24.62C43.56 29.48 43.5 34.27 43.23 39.05ZM40.04 28.42C39.84 27.51 39.79 26.45 39.58 25.54C39.5 21.96 39.77 18.73 39.89 15.36C39.66 14.93 39.72 14.22 39.43 13.84C38.4 13.73 37.36 13.8 36.55 13.84C36.07 13.87 35.63 13.87 35.18 13.84C34.04 13.78 32.5 13.25 31.84 13.69C33.96 15.17 34.94 17.78 35.33 20.98L35.33 23.71C34.92 28.51 32.14 30.95 29.41 33.43C29.01 33.74 28.52 33.95 28.04 34.19C24.64 34.93 20.36 34.91 16.96 34.19C15.22 33.15 13.76 31.82 11.95 30.85C11.15 30.03 10.43 29.13 9.98 27.97C9.24 23.63 9.98 18.97 11.19 15.67C11.5 15.4 11.66 15.2 11.95 15.06C12.16 14.81 12.38 14.58 12.56 14.3C9.23 14.03 6.25 13.9 2.99 13.84C3.08 14.36 3.5 14.55 3.44 15.21C3.45 20.46 4.27 24.92 4.36 30.09C4.58 30.49 4.58 29.42 4.97 29.48C5.13 29.14 5.42 28.93 5.88 28.87C6.12 29.18 6.36 29.98 6.03 30.4C5.92 30.99 5.84 31.62 5.57 32.06C5.41 33.32 5.06 34.38 4.81 35.56C4.91 36.07 4.62 36.97 4.97 37.23C5.25 36.19 5.91 35.54 6.33 34.65C6.96 33.96 7.19 32.87 8.31 32.67C7.98 34.07 7.17 34.98 6.94 36.47C6.6 36.99 6.31 37.56 6.18 38.29C5.84 38.4 6.12 39.14 6.03 39.5C5.8 39.55 5.38 40.14 5.72 40.26C6.54 39.76 6.92 38.83 7.7 38.29C8.09 37.84 8.4 38.25 8.76 37.84C9.13 36.98 9.66 36.31 10.13 35.56C10.34 35.16 10.64 34.86 10.89 34.49C11.41 34.44 11.94 33.93 12.25 34.49C12.14 35.75 11.23 36.21 10.89 37.23C10.35 38.11 9.84 39.02 9.37 39.96L11.34 39.96C11.75 39 12.45 38.34 12.86 37.38C13.31 36.75 14.5 35.37 15.29 36.47C14.97 37.92 13.83 38.55 13.47 39.96C14.84 40.06 15.74 39.71 17.11 39.81C17.8 38.87 17.8 37.25 19.39 37.23C19.96 38.01 19.49 39.14 19.09 39.81C19.63 39.85 19.64 39.35 20.15 39.35C20.06 39.75 20.21 39.9 20.61 39.81C26.33 39.51 32.59 39.75 38.37 39.5C38.81 37.82 38.91 35.79 39.13 33.89C39.57 32.2 39.86 30.37 40.04 28.42ZM16.66 13.24C16.16 13.24 15.9 13.49 15.29 13.39C15.26 13.81 15.03 14.04 14.53 13.99C13.81 15.15 12.94 16.15 12.25 17.33C11.68 19.54 11.41 22.06 11.49 24.93C11.79 25.75 11.95 26.69 12.4 27.36C12.58 28.24 13.23 28.65 13.47 29.48C13.92 29.48 13.98 29.88 14.38 29.94C14.61 30.16 15.09 30.14 15.29 30.39C15.97 30.57 16.51 30.89 16.96 31.3C17.66 31.37 18.15 31.63 18.63 31.91C20.19 32.17 21.86 32.33 23.49 32.52C24.11 31.93 25.03 31.63 25.92 31.3C26.43 31.48 26.99 31.78 27.59 31.46C28.09 31.3 28.27 30.82 28.5 30.4C28.91 30.15 29.22 29.8 29.41 29.33C30.12 28.78 30.46 27.85 31.08 27.21C31.26 26.72 31.36 26.17 31.69 25.84C32.03 22.96 31.73 19.7 31.08 17.34C31.07 16.71 31.05 16.09 31.23 15.67C30.03 15.86 29.86 15.02 28.96 14.91C28.42 14.48 27.72 14.22 26.83 14.15C26.83 14 26.65 14.03 26.53 14L26.53 13.84C25.74 13.57 26.45 12.84 26.22 12.48C25 12.13 23.85 11.72 22.42 11.57C20.53 11.49 19.08 11.87 17.57 12.17C17.19 12.45 17.17 13.09 16.66 13.24ZM26.53 14C26.53 14.14 26.71 14.11 26.83 14.15C27.72 14.92 29.05 15.27 29.56 16.43C30.38 18.29 30.78 20.57 30.78 23.26C30.45 24.25 29.36 25.11 29.87 26.45C29.46 26.8 29.16 27.25 28.96 27.81C27.53 29.22 25.75 30.28 23.34 30.7C22.62 30.64 22.07 30.75 21.51 30.85C19.92 30.68 18.44 30.38 17.26 29.79C16.33 28.9 14.95 28.45 14.38 27.21C13.6 24.75 13.23 21.88 13.01 18.85C13.24 18.83 13.15 18.49 13.16 18.25C13.43 18.11 13.44 17.72 13.62 17.49C13.88 17.29 14.22 17.17 14.23 16.73C14.89 16.53 15.18 15.96 15.59 15.51C16.23 15.29 16.58 14.78 17.11 14.45C17.72 14.15 18.33 13.84 18.93 13.54C19.98 13.27 21.03 13.01 22.42 13.09C23.05 13.38 23.95 13.38 24.4 13.84C25.06 13.53 25.99 13.73 26.53 14ZM24.85 15.97C24.59 15.83 24.41 15.6 24.1 15.51C24.09 15.72 24.17 15.85 24.25 15.97C24.35 16.78 23.79 16.93 23.34 17.19C23.07 17.62 22.77 18.03 22.42 18.4L22.42 20.53C22.78 21.03 23.15 21.53 23.49 22.04C24.57 22.53 25.73 22.94 27.29 22.96C27.77 22.73 28.14 22.39 28.65 22.19C28.7 20.47 28.46 19.04 28.35 17.49C28.08 17.15 27.76 16.87 27.59 16.43C27.26 16.1 26.8 15.9 26.38 15.67C25.67 15.57 25.5 16.01 24.85 15.97ZM40.34 6.1C40.2 5.44 39.95 4.87 39.73 4.28C38.69 3.81 37.02 3.96 35.79 3.67C33.11 3.77 30.76 3.54 28.2 3.52C27.62 3.39 26.98 3.32 26.22 3.37C25.07 3.94 23.73 4.31 22.88 5.19C22.17 5.34 21.92 5.95 21.21 6.1C20.76 6.37 20.19 7.13 19.69 6.86C20.25 6.05 21.09 5.53 21.97 5.04C22.73 4.38 23.86 4.1 24.55 3.37L18.33 3.37C18.61 5.73 18.71 8.16 18.48 10.66C22.97 10.36 26.97 10.51 31.54 10.35C32.09 10.55 32.92 10.49 33.51 10.66C34.11 10.62 35.2 11.17 35.48 10.5C34.5 10.18 32.78 10.57 32.45 9.59C32.11 7.88 32.61 5.71 33.05 4.28C35.26 4.35 38.02 3.29 38.83 5.19C38.9 6.03 38.74 6.62 38.67 7.32C38.66 8.51 38.84 9.91 38.07 10.35C37.69 10.79 36.24 10.14 36.09 10.81C37.42 11 38.61 11.33 39.89 11.57C40.05 9.75 40.36 8.09 40.34 6.1ZM21.21 8.83C21.29 8.91 21.1 9.03 21.06 8.99C20.98 8.91 21.17 8.79 21.21 8.83ZM28.65 8.68C29.55 8.42 29.96 7.67 31.08 7.62C30.68 8.38 29.67 8.54 29.11 9.14C28.17 9.37 27.75 10.1 26.68 10.2C27.15 9.51 28.08 9.27 28.65 8.68ZM23.79 7.01C23.35 7.53 22.82 7.96 22.13 8.23C22.57 7.71 23.1 7.28 23.79 7.01ZM23.95 6.86C23.94 6.95 23.92 7.04 23.79 7.01C23.8 6.92 23.82 6.83 23.95 6.86ZM24.1 6.71C24.09 6.8 24.08 6.89 23.95 6.86C23.95 6.77 23.97 6.68 24.1 6.71ZM28.35 6.1C29.14 5.98 29.45 5.38 30.32 5.34C29.19 5.98 28.28 6.85 26.83 7.16C27.15 6.62 27.92 6.53 28.35 6.1ZM25.46 5.49C26.16 4.82 27.14 4.44 28.2 4.13C27.58 4.88 26.43 5.1 25.46 5.49ZM28.35 22.65C28.13 22.89 28.03 23.24 27.89 23.56C28.36 23.67 28.18 23.14 28.65 23.26C28.69 22.91 28.62 22.69 28.35 22.65ZM4.81 11.26C4.26 10.25 4.49 8.45 3.9 7.47C3.48 7.8 3.08 8.16 2.69 8.53L2.69 11.72C3.31 11.48 4.26 11.57 4.81 11.26ZM2.69 7.47C3.35 7.57 3.36 7.03 3.9 7.01C4 6.21 3.79 5.71 3.75 5.04C3.76 4.84 3.94 4.83 3.9 4.58C3.99 4.11 4.72 4.28 4.51 3.52L4.06 3.52C4.05 3.71 3.86 3.73 3.9 3.97C3.44 4.37 2.99 4.78 2.53 5.19C2.42 6.12 2.74 6.61 2.69 7.47ZM6.64 3.67C6.92 3.69 6.74 4.17 7.09 4.13C7.14 3.92 7.31 3.84 7.24 3.52C7.01 3.54 6.68 3.46 6.64 3.67ZM8.76 8.23C7.66 8.54 7.89 10.19 7.7 11.41C8.77 11.48 9.45 11.14 10.58 11.26C10.17 9.96 10.3 8.11 10.28 6.4C10.17 6.06 9.41 6.36 9.52 5.8C9.87 5.85 10.1 5.77 10.28 5.64L10.28 3.37C9.54 3.44 8.5 3.21 8 3.52C8.26 4.64 7.86 6 8 7.47C8.18 7.49 8.17 7.71 8.16 7.92C8.25 8.13 8.74 7.94 8.76 8.23ZM12.56 10.96C12.75 11.17 13.3 11.19 13.32 10.81C13.03 10.79 13.21 10.3 12.86 10.35C12.78 10.58 12.64 10.74 12.56 10.96ZM13.01 5.49C13.18 5.04 13.52 4.18 13.16 3.67C13.13 3.55 13.04 3.49 12.86 3.52C12.96 4.13 12.66 5.14 13.01 5.49ZM13.93 11.11C14.62 11.05 15.6 11.27 16.05 10.96C16.08 10.47 15.78 10.32 15.9 9.75C15.44 9.74 14.97 9.76 14.99 9.29L15.9 9.29C15.78 7.88 15.96 6.59 15.9 4.89C15.63 4.8 15.01 5.07 14.99 4.73C15.34 4.28 16.31 4.44 16.05 3.37C15.78 3.17 14.63 3.08 14.38 3.37C14.5 3.4 14.68 3.37 14.68 3.52C14.63 4.03 14.06 4.01 14.08 4.58C14.09 5.32 13.99 6.18 14.23 6.71C14.4 8.36 13.72 9.92 13.93 11.11Z" /></g></svg>