<svg xmlns="http://www.w3.org/2000/svg" viewBox="0 0 80 125" width="80" height="125"><defs><clipPath clipPathUnits="userSpaceOnUse" id="cp1"><path d="M0 0L80 0L80 125L0 125Z" /></clipPath></defs><style>tspan { white-space:pre }.shp0 { fill: #000000 } </style><g clip-path="url(#cp1)"><path class="shp0" d="M30.36 76.09C29.78 78.03 29.87 80.48 30.41 83.37C31.4 88.64 33.78 95.45 35.13 102.71L45.25 102.71C46.64 95.43 49.15 88.61 50.19 83.35C50.77 80.46 50.85 78.03 50.27 76.11C49.72 74.31 48.49 72.88 46.23 71.51L34.24 71.51C32.09 72.86 30.89 74.29 30.36 76.09ZM54.02 116.08L26.42 116.08C23.83 116.08 21.82 118.04 21.82 120.54L21.82 125L26.42 125L54.02 125L58.62 125L58.62 120.54C58.62 118.04 56.6 116.08 54.02 116.08ZM68.28 4.64L44.82 4.64C44.82 2.15 42.79 0.18 40.22 0.18C37.65 0.18 35.62 2.15 35.62 4.64L12.15 4.64L0 55.67C1.59 54.75 3.18 53.68 5.26 53.68C7.98 53.68 9.75 55.32 11.11 56.44C12.48 57.55 13.43 58.13 14.01 58.13C14.59 58.14 15.54 57.56 16.91 56.46C18.27 55.36 20.03 53.75 22.74 53.75C25.43 53.75 27.21 55.36 28.58 56.45C29.94 57.55 30.9 58.13 31.48 58.13C31.77 58.13 32.15 57.99 32.64 57.7C33.12 57.42 33.7 57 34.38 56.45C35.4 55.63 36.66 54.52 38.36 54.01C38.93 53.84 39.54 53.74 40.22 53.74C42.91 53.74 44.69 55.35 46.06 56.45C47.42 57.55 48.38 58.13 48.96 58.13C49.53 58.13 50.49 57.54 51.85 56.43C53.22 55.33 54.99 53.7 57.7 53.7C60.41 53.7 62.18 55.33 63.54 56.44C64.22 56.99 64.8 57.42 65.28 57.7C65.76 57.99 66.15 58.13 66.43 58.13C67.01 58.13 67.96 57.55 69.32 56.42C70.68 55.31 72.45 53.66 75.17 53.66C77.26 53.66 78.85 54.72 80.44 55.65L68.28 4.64ZM47.05 107.17L33.32 107.17C32 107.17 31.02 108.13 31.02 109.4C31.02 110.67 32 111.63 33.32 111.63L47.12 111.63C48.43 111.63 49.42 110.67 49.42 109.4C49.42 108.13 48.43 107.17 47.12 107.17L47.05 107.17ZM40.22 58.2C39.93 58.2 39.54 58.35 39.06 58.63C38.75 58.81 38.32 59.15 37.92 59.45L37.92 66.91L42.52 66.91L42.52 59.45C41.51 58.69 40.7 58.2 40.22 58.2Z" /></g></svg>