<svg viewBox="0 0 203 68" width="203" height="68">
<path d="M38.23 57.57C38.77 60.37 39.9 63.84 37.51 66.06C36.13 67.33 33.8 67.94 31.97 67.54C30.33 67.18 29.98 65.8 31.2 64.67C31.37 64.51 30.77 61.58 30.64 60.9C30.31 59.24 30.18 57.67 30.2 55.97C30.25 50.86 30.59 45.83 30.18 40.72C30.08 39.48 29.98 38.25 29.87 37.01C28.85 39.71 27.83 42.42 27.28 45.27C26.77 47.96 26.29 50.59 25.35 53.13C25.41 53.32 25.47 53.51 25.52 53.69C25.83 54.65 24.76 55.59 24.07 56.01C23.54 56.34 22.99 56.61 22.41 56.86C21.08 57.42 18.67 57.97 17.4 56.87C17.03 56.73 16.82 56.51 16.89 56.15C16.75 55.66 16.98 55.17 17.36 54.73C16.36 51.51 15.49 48.34 13.75 45.38C12 42.4 10.66 39.28 9.38 36.07C9.27 35.78 9.15 35.49 9.04 35.2C9.05 36.01 9.07 36.82 9.09 37.63C9.31 45.87 9.9 54.1 9.93 62.34C9.94 65.1 4.75 66.33 2.94 64.89C2.52 64.55 2.12 64.22 1.8 63.79C1.06 62.8 1.27 61.83 1.98 61.04C1.86 53.09 1.24 45.15 1.14 37.2C1.09 33.08 0.99 29.06 0.39 24.98C-0.14 21.35 -0.35 17.93 1.27 14.55C2.6 11.75 9.39 11.43 9.01 14.49C12.36 21.09 14.84 28.03 17.58 34.9C18.53 37.26 19.71 39.44 20.87 41.65C21.69 39.28 22.66 36.96 23.47 34.59C25.57 28.37 27.4 22.17 28.71 15.76C28.64 15.59 28.58 15.41 28.5 15.24C28.22 14.56 28.57 13.89 29.25 13.33C30.34 11.41 37.27 10.31 36.88 12.4C36.79 12.88 36.69 13.35 36.6 13.82C38.1 17.99 37.38 22.46 37.32 26.81C37.25 32.18 38.1 37.51 38.27 42.88C38.42 47.65 37.32 52.89 38.23 57.57ZM55.38 56.78C55.67 58.64 56.58 61.84 55.28 63.49C54.25 64.79 52.21 65.29 50.67 65.57C50.5 65.6 46.72 65.98 47.56 64.92C48.88 63.24 47.6 59.68 47.38 57.76C46.92 53.64 47.62 49.44 47.08 45.33C46.56 41.32 45.55 37.61 45.62 33.52C45.7 29.27 45.92 25.03 45.31 20.81C45.03 18.91 52.93 17.26 53.14 18.71C53.81 23.3 53.43 27.88 53.45 32.49C53.47 36.51 54.85 40.25 55 44.23C55.15 48.39 54.75 52.66 55.38 56.78ZM90 55.29C90.56 57.69 91.24 60.5 89.17 62.38C87.29 64.08 85.07 65.17 82.68 65.97C78.06 67.5 72.56 68.4 67.68 67.82C60.08 66.92 63.56 59.89 62.88 54.63C62.58 52.34 70.47 50.68 70.71 52.53C71.13 55.78 68.97 60.55 70.95 63.38C72.03 64.93 74.81 64.44 76.44 64.3C78.06 64.17 80.83 64.09 82.02 62.77C83.96 60.61 81.65 56.33 81.6 53.75C81.5 48.92 83.79 38.56 76.1 37.99C71.59 37.65 62.71 40.46 60.55 34.5C59.57 31.81 60.09 29.04 59.97 26.26C59.87 23.85 59.2 21.53 59.32 19.09C59.57 13.98 64.45 11.46 68.87 10.29C73.68 9.02 90.67 7.25 88.24 16.45C87.68 18.58 79.96 19.74 80.49 17.72C81.68 13.22 75.55 12.62 72.45 12.76C71.67 12.79 71.02 12.82 70.32 12.94C70.41 12.95 68.98 13.33 68.7 13.62C67.16 15.18 66.97 17.32 67.2 19.43C67.52 22.25 67.76 24.87 67.75 27.72C67.74 29.97 67.78 33.73 70.53 34.51C75.88 36.03 83.53 32.02 87.66 37.59C91.46 42.73 88.65 49.45 90 55.29ZM123.42 51.85C123.66 55.78 124.06 60.44 122.65 64.18C121.51 67.23 113.66 67.57 115.21 63.45C115.93 61.52 115.68 58.57 115.65 56.53C115.62 54.21 115.47 51.89 115.26 49.58C115.01 46.82 114.79 44.07 114.61 41.31C110.57 40.74 106.51 41.08 102.45 41.34C102.21 44.83 101.94 48.38 102.29 51.83C102.65 55.43 104.19 59.95 103.1 63.51C102.49 65.48 94.9 66.44 95.37 64.9C95.98 62.92 95.3 60.26 95.01 58.26C94.7 56.1 94.34 53.92 94.35 51.74C94.38 47.46 94.74 43.2 94.87 38.93C95.14 29.98 93.62 21.1 93.97 12.15C94.05 9.87 101.84 8.89 101.8 10.05C101.45 19.31 103.07 28.5 102.67 37.76C106.58 37.63 110.48 37.24 114.37 37.27C114.37 37.13 114.36 36.98 114.35 36.83C113.98 29.64 113.02 22.52 112.98 15.3C112.97 12.01 120.88 10.68 120.9 14.62C120.93 22.19 122.07 29.66 122.31 37.21C122.47 42.11 123.12 46.97 123.42 51.85ZM162.44 62.19C163.52 65.76 155.69 67.9 154.6 64.29C152.94 58.78 150.06 53.74 148.34 48.26C147.33 45.04 145.88 42.06 144.36 39.1C142.03 43.11 139.43 46.94 136.25 50.37C136.29 54.56 136.17 58.75 135.79 62.95C135.6 64.98 131.83 65.68 130.35 65.68L130.16 65.68C128.92 65.68 127.05 64.89 127.99 63.4C128.29 59.89 128.41 56.39 128.41 52.89C127.93 52.67 127.7 52.3 128.31 51.69C128.34 51.65 128.37 51.62 128.4 51.59C128.27 37.85 126.31 24.15 125.83 10.41C125.72 7.35 133.57 5.77 133.66 8.31C134.05 19.39 135.37 30.45 135.96 41.51C137.76 38.53 139.38 35.42 140.96 32.29C140.67 31.28 141.26 30.39 142.24 29.76C142.39 29.46 142.54 29.17 142.69 28.87C144.72 24.85 146.65 20.83 148.51 16.72C150.06 13.31 151.94 10.5 154.92 8.19C156.33 7.09 158.7 6.58 160.45 6.7C162.06 6.82 162.11 7.71 160.96 8.61C157.7 11.15 156.47 15.18 154.8 18.79C152.98 22.77 150.94 26.67 148.94 30.57C151.43 35.81 154.3 40.65 156.17 46.16C158.03 51.6 160.78 56.69 162.44 62.19ZM198.78 40.3C198.86 44.13 198.91 47.96 199.06 51.78C199.17 54.45 200.16 59.79 198.26 62.03C197.18 63.31 195.24 63.82 193.65 64.11C193.51 64.14 189.67 64.48 190.54 63.45C192.2 61.49 191.35 56.8 191.25 54.43C191.06 49.81 190.89 45.17 190.85 40.54C188.7 40.79 186.57 41.33 184.36 41.12C181.63 40.87 177 39.66 174.26 40.84C174.36 42.47 174.44 44.09 174.46 45.73C174.55 51.28 174.47 56.83 174.46 62.38C174.46 64.54 166.63 65.63 166.63 64.48C166.64 57.47 166.81 50.45 166.5 43.44C166.24 37.39 164.66 30.98 165.76 24.95C166.76 19.46 169.66 15.62 174.87 13.59C179.38 11.84 185.01 10.97 189.84 10.78C194.61 10.6 197.36 12.36 197.78 17.28C198.24 22.58 198.32 28.02 198.57 33.34C198.6 34.01 198.61 34.68 198.64 35.35C200.44 35.19 202.76 35.23 203.18 36.89C203.61 38.59 201.09 40 198.78 40.3ZM187.36 36.51C188.5 36.53 189.62 36.47 190.73 36.36C190.52 32.35 190.1 28.36 190.11 24.35C190.11 21.92 190.7 16.21 188.28 14.61C186.54 13.45 184.57 13.88 182.63 14.23C181.27 14.48 179.08 14.35 177.92 15.11C173.57 17.94 173.02 24.44 173.34 29.1C173.51 31.61 173.74 34.1 173.94 36.59C178.27 35.68 182.79 36.4 187.36 36.51ZM45.58 12.82C45.16 12.58 44.87 12.23 44.72 11.76C44.72 11.54 44.71 11.32 44.7 11.09C44.7 11 44.69 10.91 44.69 10.83C44.44 10.49 44.3 10.07 44.41 9.65C44.47 9.41 44.52 9.16 44.61 8.93C44.25 6.98 44.38 4.94 44.4 2.95C44.41 1.07 47.3 0.04 48.75 -0.09C50.38 -0.23 52.32 0.34 52.31 2.26C52.29 4.62 52.13 6.88 53.14 9.09C53.63 10.15 52.72 11.14 51.68 11.81C51.51 11.95 51.34 12.1 51.17 12.24C50.31 12.84 49.26 13.19 48.22 13.29C47.34 13.37 46.36 13.29 45.58 12.82Z" /></svg>