<svg xmlns="http://www.w3.org/2000/svg" viewBox="0 0 64 42" width="64" height="42"><defs><clipPath clipPathUnits="userSpaceOnUse" id="cp1"><path d="M0 0L64 0L64 42L0 42Z" /></clipPath></defs><style>tspan { white-space:pre }.shp0 { fill: #333333 } </style><g clip-path="url(#cp1)"><path fill-rule="evenodd" class="shp0" d="M64 8L64 34C64 38.42 60.42 42 56 42L8 42C3.58 42 0 38.42 0 34L0 8C0 3.58 3.58 0 8 0L56 0C60.42 0 64 3.58 64 8ZM60 10.5L46 21L60 31.5L60 10.5ZM44.34 22.25L35.6 28.81C34.53 29.6 33.27 30 32 30C30.73 30 29.47 29.6 28.4 28.81L19.66 22.25L4 34C4 36.21 5.79 38 8 38L56 38C58.2 38 60 36.21 60 34L44.34 22.25ZM4 31.5L18 21L4 10.5L4 31.5ZM60 8C60 5.79 58.2 4 56 4L8 4C5.79 4 4 5.79 4 8L4 8L19.66 19.75L21.33 21L29.6 27.2C30.3 27.73 31.13 28 32 28C32.87 28 33.7 27.73 34.4 27.2L60 8Z" /></g></svg>