<svg xmlns="http://www.w3.org/2000/svg" viewBox="0 0 132 202" width="132" height="202">
<style>tspan { white-space:pre }.shp0 { fill: #ffffff } .shp1 { fill: #6bc6b3 } </style>
<path class="shp0" d="M112.67 18.85C86.89 -5.76 45.12 -5.76 19.34 18.85C-6.45 43.45 -6.45 83.35 19.34 107.94C19.34 107.94 65.97 151.6 65.97 202C65.97 151.6 112.66 107.94 112.66 107.94C138.45 83.35 138.45 43.45 112.67 18.85Z" />
<path class="shp1" d="M94.07 91.44C92.8 84.89 94.33 77.55 94.13 70.88C93.9 63.36 92.7 55.91 92.8 48.38C92.87 42.3 93.89 36.04 91.79 30.2C91.92 29.54 92.06 28.88 92.18 28.21C92.72 25.29 83.03 26.83 81.51 29.51C80.55 30.29 80.05 31.23 80.46 32.19C80.56 32.43 80.65 32.67 80.74 32.92C78.91 41.89 76.35 50.57 73.41 59.27C72.28 62.59 70.92 65.84 69.77 69.16C68.14 66.07 66.5 63.02 65.17 59.7C61.33 50.09 57.86 40.38 53.17 31.13C53.7 26.85 44.2 27.3 42.33 31.22C40.06 35.96 40.36 40.75 41.1 45.82C41.94 51.53 42.09 57.15 42.16 62.93C42.29 74.06 43.16 85.16 43.33 96.29C42.34 97.4 42.04 98.76 43.07 100.14C43.53 100.74 44.08 101.21 44.67 101.68C47.2 103.7 54.47 101.98 54.46 98.12C54.42 86.58 53.59 75.06 53.28 63.52C53.25 62.39 53.23 61.26 53.21 60.13C53.37 60.54 53.53 60.95 53.69 61.35C55.49 65.84 57.36 70.2 59.81 74.38C62.24 78.51 63.46 82.96 64.86 87.47C64.33 88.08 64.01 88.77 64.21 89.45C64.1 89.96 64.4 90.27 64.91 90.46C66.7 91.99 70.06 91.23 71.94 90.44C72.74 90.11 73.51 89.71 74.25 89.26C75.21 88.66 76.72 87.36 76.29 86.01C76.2 85.75 76.12 85.49 76.04 85.23C77.36 81.68 78.03 77.98 78.75 74.23C79.51 70.23 80.94 66.45 82.37 62.66C82.52 64.39 82.67 66.12 82.81 67.85C83.38 75 82.9 82.05 82.83 89.2C82.8 91.57 82.98 93.78 83.44 96.09C83.63 97.05 84.47 101.15 84.23 101.38C82.52 102.96 83.02 104.89 85.31 105.4C87.86 105.96 91.13 105.1 93.06 103.32C96.41 100.22 94.83 95.36 94.07 91.44Z" /></svg>