<svg xmlns="http://www.w3.org/2000/svg"
 viewBox="0 0 225 92" width="225" height="92">
	
	<style>tspan { white-space:pre }.shp0 { fill: #000000 } .shp1 { fill: #ffffff } </style>
	
		<path class="shp0" d="M220.46 83.59C229.24 85.32 222.14 11.87 220.75 6.96C216.83 -6.17 167.4 2.68 156.39 3.53C130.94 5.5 106.01 1.61 81.17 2.78C68.76 3.36 11.46 -0.85 6.13 6.75C-3.97 21.17 0.82 58.35 3.57 76.9C-4.51 78.46 8.19 85.21 9.85 86.7C22.48 91.08 42.57 86.26 55.87 87.49C86.73 90.43 119.46 83.1 150.42 85.58C159.41 87.87 169.62 87.62 178.86 88.06C185.69 99.2 218.19 83.13 220.46 83.59C220.25 83.55 221.47 83.79 220.46 83.59Z" />
		<path fill-rule="evenodd" class="shp1" d="M52.08 62.59C52.6 65.24 53.67 68.54 51.4 70.64C50.09 71.85 47.88 72.43 46.14 72.05C44.58 71.71 44.25 70.39 45.41 69.32C45.57 69.17 45 66.39 44.88 65.74C44.56 64.17 44.44 62.67 44.46 61.07C44.51 56.22 44.83 51.44 44.45 46.6C44.35 45.42 44.25 44.25 44.15 43.07C43.18 45.64 42.21 48.21 41.69 50.92C41.21 53.46 40.75 55.97 39.86 58.37C39.91 58.55 39.97 58.73 40.02 58.9C40.32 59.81 39.3 60.7 38.64 61.1C38.14 61.41 37.62 61.68 37.07 61.91C35.81 62.44 33.52 62.96 32.31 61.92C31.97 61.79 31.76 61.58 31.83 61.24C31.7 60.77 31.92 60.3 32.28 59.89C31.33 56.83 30.5 53.82 28.85 51.02C27.19 48.19 25.92 45.23 24.71 42.18C24.6 41.91 24.49 41.64 24.38 41.36C24.39 42.13 24.41 42.89 24.43 43.66C24.63 51.48 25.2 59.29 25.22 67.11C25.23 69.73 20.31 70.9 18.59 69.53C18.19 69.21 17.81 68.89 17.5 68.49C16.8 67.55 17.01 66.62 17.68 65.88C17.57 58.33 16.98 50.8 16.89 43.26C16.84 39.34 16.74 35.53 16.17 31.66C15.66 28.22 15.47 24.97 17 21.76C18.27 19.1 24.71 18.8 24.35 21.7C27.53 27.97 29.88 34.55 32.49 41.07C33.38 43.31 34.5 45.38 35.61 47.48C36.38 45.23 37.3 43.03 38.07 40.77C40.06 34.88 41.8 28.99 43.04 22.91C42.98 22.74 42.92 22.58 42.85 22.42C42.58 21.77 42.91 21.13 43.56 20.6C44.59 18.79 51.17 17.74 50.8 19.72C50.72 20.17 50.62 20.62 50.53 21.07C51.96 25.03 51.27 29.27 51.22 33.4C51.15 38.5 51.96 43.55 52.12 48.64C52.26 53.17 51.22 58.15 52.08 62.59ZM68.36 61.84C68.63 63.61 69.49 66.64 68.25 68.21C67.28 69.44 65.34 69.91 63.88 70.18C63.72 70.21 60.14 70.57 60.93 69.56C62.19 67.97 60.97 64.59 60.77 62.77C60.32 58.86 60.99 54.87 60.48 50.97C59.98 47.16 59.03 43.65 59.1 39.77C59.17 35.73 59.38 31.71 58.79 27.71C58.53 25.9 66.03 24.34 66.23 25.72C66.87 30.07 66.5 34.41 66.52 38.78C66.54 42.6 67.85 46.15 67.99 49.93C68.14 53.87 67.75 57.93 68.36 61.84ZM101.21 60.42C101.73 62.69 102.38 65.36 100.42 67.15C98.64 68.76 96.53 69.8 94.26 70.55C89.88 72.01 84.66 72.86 80.03 72.31C72.81 71.46 76.12 64.78 75.47 59.8C75.19 57.63 82.68 56.05 82.9 57.81C83.31 60.89 81.25 65.41 83.13 68.1C84.16 69.57 86.79 69.1 88.34 68.98C89.88 68.85 92.51 68.77 93.64 67.52C95.48 65.47 93.29 61.41 93.24 58.96C93.14 54.38 95.32 44.55 88.02 44C83.74 43.68 75.31 46.35 73.26 40.69C72.34 38.14 72.83 35.51 72.71 32.88C72.61 30.58 71.98 28.38 72.1 26.07C72.34 21.22 76.96 18.83 81.16 17.72C85.71 16.51 101.84 14.83 99.54 23.56C99.01 25.59 91.68 26.69 92.18 24.77C93.31 20.5 87.49 19.93 84.55 20.06C83.81 20.09 83.2 20.12 82.53 20.23C82.62 20.24 81.26 20.6 80.99 20.88C79.53 22.36 79.35 24.39 79.58 26.39C79.88 29.07 80.1 31.55 80.1 34.26C80.09 36.39 80.12 39.96 82.73 40.7C87.81 42.15 95.07 38.34 98.98 43.63C102.6 48.51 99.93 54.88 101.21 60.42ZM132.92 57.17C133.15 60.9 133.53 65.31 132.2 68.86C131.11 71.76 123.66 72.08 125.13 68.17C125.82 66.34 125.58 63.54 125.55 61.61C125.52 59.4 125.38 57.21 125.18 55.01C124.94 52.39 124.74 49.78 124.57 47.16C120.73 46.62 116.88 46.94 113.03 47.18C112.8 50.51 112.54 53.87 112.87 57.15C113.22 60.56 114.67 64.85 113.64 68.23C113.07 70.1 105.86 71.01 106.31 69.55C106.88 67.67 106.24 65.14 105.96 63.25C105.67 61.2 105.33 59.13 105.34 57.05C105.37 53 105.71 48.96 105.83 44.9C106.09 36.41 104.65 27.98 104.97 19.49C105.06 17.32 112.45 16.39 112.41 17.5C112.07 26.28 113.61 35 113.23 43.79C116.94 43.67 120.64 43.29 124.34 43.33C124.33 43.19 124.32 43.05 124.31 42.91C123.97 36.08 123.05 29.33 123.02 22.48C123.01 19.35 130.52 18.09 130.53 21.83C130.56 29.01 131.64 36.1 131.87 43.27C132.02 47.91 132.64 52.52 132.92 57.17ZM169.95 66.97C170.97 70.37 163.55 72.39 162.52 68.96C160.94 63.74 158.21 58.96 156.57 53.75C155.61 50.7 154.24 47.87 152.8 45.05C150.59 48.86 148.12 52.5 145.1 55.75C145.14 59.73 145.03 63.71 144.66 67.69C144.48 69.62 140.91 70.28 139.5 70.28L139.32 70.28C138.14 70.28 136.37 69.54 137.26 68.12C137.55 64.79 137.66 61.47 137.66 58.15C137.2 57.94 136.99 57.59 137.56 57C137.59 56.97 137.62 56.94 137.65 56.91C137.52 43.88 135.67 30.87 135.21 17.84C135.11 14.93 142.56 13.43 142.64 15.84C143.02 26.36 144.26 36.85 144.83 47.35C146.53 44.52 148.07 41.57 149.57 38.6C149.29 37.64 149.85 36.8 150.78 36.2C150.93 35.91 151.07 35.63 151.21 35.35C153.13 31.54 154.97 27.72 156.74 23.82C158.21 20.59 159.99 17.92 162.81 15.72C164.15 14.68 166.4 14.2 168.06 14.32C169.6 14.42 169.64 15.27 168.55 16.12C165.45 18.54 164.28 22.36 162.71 25.79C160.97 29.56 159.04 33.26 157.14 36.96C159.5 41.93 162.22 46.53 164 51.76C165.77 56.92 168.37 61.75 169.95 66.97ZM204.43 46.21C204.51 49.83 204.55 53.46 204.7 57.09C204.81 59.63 205.74 64.7 203.94 66.82C202.91 68.03 201.08 68.52 199.57 68.8C199.43 68.82 195.79 69.15 196.62 68.17C198.2 66.31 197.38 61.85 197.29 59.61C197.11 55.23 196.95 50.81 196.91 46.43C194.87 46.67 192.85 47.18 190.75 46.98C188.16 46.73 183.76 45.59 181.16 46.71C181.26 48.25 181.33 49.79 181.36 51.35C181.44 56.61 181.37 61.88 181.36 67.15C181.36 69.2 173.92 70.23 173.92 69.14C173.93 62.49 174.1 55.83 173.81 49.18C173.55 43.43 172.06 37.35 173.1 31.63C174.05 26.42 176.8 22.77 181.75 20.85C186.03 19.19 191.37 18.36 195.95 18.19C200.48 18.01 203.1 19.68 203.49 24.35C203.92 29.38 204 34.54 204.24 39.59C204.26 40.23 204.28 40.87 204.3 41.5C206.01 41.35 208.22 41.38 208.61 42.96C209.02 44.58 206.62 45.92 204.43 46.21ZM193.6 42.6C194.68 42.62 195.75 42.56 196.79 42.46C196.6 38.65 196.2 34.87 196.2 31.06C196.21 28.76 196.77 23.34 194.48 21.82C192.82 20.72 190.95 21.13 189.11 21.46C187.82 21.69 185.74 21.57 184.64 22.29C180.52 24.98 179.99 31.15 180.29 35.57C180.46 37.95 180.67 40.31 180.87 42.68C184.98 41.81 189.26 42.5 193.6 42.6ZM59.06 20.12C58.65 19.89 58.38 19.56 58.24 19.11C58.24 18.9 58.22 18.69 58.22 18.48C58.22 18.39 58.21 18.31 58.21 18.22C57.97 17.9 57.84 17.51 57.94 17.11C58 16.89 58.05 16.65 58.14 16.43C57.8 14.58 57.92 12.64 57.93 10.75C57.94 8.97 60.69 7.99 62.06 7.87C63.61 7.73 65.45 8.28 65.44 10.1C65.42 12.34 65.27 14.48 66.23 16.58C66.69 17.59 65.83 18.52 64.85 19.16C64.68 19.29 64.52 19.43 64.36 19.57C63.54 20.13 62.55 20.47 61.56 20.56C60.72 20.65 59.79 20.56 59.06 20.12Z" />

</svg>