<svg xmlns="http://www.w3.org/2000/svg" viewBox="0 0 171 70" width="171" height="70"><defs><clipPath clipPathUnits="userSpaceOnUse" id="cp1"><path d="M0 0L171 0L171 70L0 70Z" /></clipPath></defs><style>tspan { white-space:pre }.shp0 { fill: #000000 } </style><g clip-path="url(#cp1)"><path fill-rule="evenodd" class="shp0" d="M2.48 54.67C2.12 54.4 1.78 54.12 1.51 53.75C0.89 52.92 1.07 52.1 1.67 51.44C1.57 44.74 1.04 38.05 0.97 31.36C0.92 27.88 0.83 24.5 0.33 21.06C-0.12 18.01 -0.3 15.13 1.06 12.28C2.19 9.92 7.91 9.65 7.59 12.22C10.41 17.79 12.5 23.63 14.81 29.41C15.6 31.41 16.59 33.24 17.57 35.11C18.27 33.11 19.09 31.16 19.76 29.15C21.54 23.92 23.07 18.69 24.18 13.29C24.12 13.15 24.07 13 24.01 12.86C23.76 12.28 24.06 11.72 24.64 11.24C25.55 9.63 31.39 8.7 31.06 10.46C30.99 10.86 30.9 11.26 30.83 11.66C32.09 15.17 31.48 18.94 31.43 22.6C31.37 27.13 32.09 31.62 32.23 36.14C32.35 40.16 31.43 44.57 32.2 48.52C32.65 50.87 33.61 53.8 31.59 55.66C30.43 56.74 28.47 57.25 26.92 56.91C25.54 56.61 25.24 55.44 26.27 54.49C26.42 54.36 25.92 51.89 25.8 51.32C25.53 49.91 25.42 48.59 25.43 47.16C25.48 42.86 25.77 38.62 25.42 34.32C25.34 33.28 25.25 32.23 25.16 31.19C24.3 33.47 23.44 35.75 22.98 38.16C22.55 40.42 22.14 42.64 21.35 44.77C21.4 44.93 21.45 45.09 21.49 45.24C21.76 46.05 20.85 46.84 20.27 47.2C19.82 47.47 19.36 47.71 18.88 47.91C17.75 48.39 15.72 48.84 14.65 47.92C14.34 47.8 14.16 47.61 14.23 47.31C14.11 46.9 14.3 46.49 14.62 46.12C13.77 43.4 13.04 40.73 11.58 38.24C10.1 35.73 8.98 33.11 7.9 30.4C7.8 30.16 7.71 29.92 7.61 29.67C7.62 30.35 7.63 31.04 7.65 31.72C7.84 38.66 8.33 45.59 8.36 52.53C8.37 54.86 3.99 55.9 2.48 54.67ZM45.02 27.39C45.03 30.78 46.2 33.93 46.32 37.28C46.45 40.78 46.11 44.39 46.64 47.86C46.88 49.43 47.65 52.12 46.55 53.51C45.69 54.6 43.97 55.02 42.67 55.26C42.53 55.28 39.35 55.6 40.05 54.71C41.17 53.3 40.09 50.3 39.91 48.67C39.51 45.21 40.11 41.67 39.65 38.2C39.21 34.83 38.36 31.71 38.42 28.26C38.49 24.68 38.67 21.11 38.15 17.56C37.92 15.96 44.57 14.56 44.75 15.79C45.32 19.65 45 23.5 45.02 27.39ZM50.51 22.15C50.42 20.12 49.86 18.16 49.96 16.1C50.17 11.8 54.28 9.68 58.01 8.7C62.05 7.62 76.36 6.13 74.32 13.88C73.85 15.68 67.34 16.66 67.79 14.95C68.79 11.16 63.63 10.66 61.02 10.77C60.37 10.8 59.82 10.82 59.22 10.92C59.3 10.93 58.1 11.25 57.86 11.5C56.56 12.82 56.4 14.62 56.6 16.39C56.87 18.77 57.07 20.97 57.07 23.37C57.06 25.27 57.08 28.43 59.41 29.09C63.91 30.37 70.35 27 73.83 31.69C77.04 36.02 74.67 41.68 75.8 46.6C76.27 48.61 76.85 50.98 75.1 52.57C73.52 54 71.65 54.92 69.64 55.59C65.75 56.88 61.12 57.64 57 57.15C50.6 56.39 53.54 50.46 52.96 46.04C52.71 44.12 59.35 42.71 59.56 44.28C59.91 47.01 58.09 51.02 59.76 53.41C60.68 54.71 63.01 54.3 64.38 54.19C65.75 54.08 68.08 54.01 69.09 52.9C70.72 51.08 68.77 47.47 68.73 45.3C68.65 41.24 70.58 32.5 64.1 32.02C60.3 31.73 52.82 34.11 51 29.08C50.18 26.82 50.61 24.49 50.51 22.15ZM79.15 10.26C79.22 8.34 85.79 7.51 85.75 8.49C85.45 16.29 86.82 24.03 86.48 31.84C89.77 31.72 93.06 31.39 96.34 31.42C96.33 31.29 96.33 31.17 96.32 31.05C96.01 24.99 95.2 19 95.17 12.92C95.16 10.14 101.82 9.02 101.84 12.34C101.86 18.71 102.82 25.01 103.02 31.37C103.15 35.49 103.7 39.59 103.96 43.7C104.16 47.02 104.5 50.94 103.32 54.09C102.36 56.66 95.74 56.94 97.04 53.48C97.65 51.85 97.44 49.36 97.41 47.65C97.39 45.69 97.26 43.74 97.09 41.79C96.87 39.47 96.69 37.15 96.54 34.83C93.14 34.35 89.72 34.63 86.3 34.85C86.09 37.8 85.86 40.78 86.16 43.69C86.46 46.72 87.76 50.53 86.84 53.52C86.33 55.18 79.94 55.99 80.33 54.7C80.84 53.03 80.27 50.79 80.03 49.11C79.76 47.29 79.46 45.45 79.47 43.61C79.49 40.01 79.8 36.42 79.91 32.82C80.14 25.28 78.86 17.8 79.15 10.26ZM108.15 43.47C108.03 31.9 106.39 20.36 105.98 8.79C105.89 6.21 112.51 4.88 112.58 7.02C112.91 16.35 114.01 25.66 114.52 34.99C116.03 32.47 117.39 29.85 118.72 27.22C118.48 26.37 118.98 25.61 119.8 25.09C119.93 24.84 120.06 24.59 120.18 24.34C121.89 20.95 123.52 17.56 125.09 14.11C126.39 11.23 127.98 8.86 130.48 6.92C131.67 5.99 133.67 5.56 135.14 5.67C136.5 5.76 136.54 6.52 135.58 7.27C132.83 9.42 131.78 12.8 130.39 15.85C128.85 19.2 127.14 22.49 125.45 25.77C127.54 30.18 129.96 34.26 131.54 38.9C133.1 43.48 135.41 47.77 136.82 52.4C137.73 55.42 131.14 57.22 130.22 54.17C128.82 49.53 126.4 45.29 124.95 40.67C124.09 37.96 122.87 35.45 121.6 32.95C119.63 36.33 117.44 39.55 114.76 42.45C114.79 45.97 114.7 49.51 114.37 53.04C114.21 54.76 111.04 55.34 109.79 55.34L109.63 55.34C108.58 55.34 107.01 54.68 107.8 53.42C108.06 50.47 108.16 47.52 108.16 44.57C107.75 44.39 107.56 44.08 108.07 43.56C108.1 43.53 108.12 43.5 108.15 43.47ZM167.43 33.98C167.5 37.21 167.54 40.43 167.67 43.65C167.76 45.9 168.59 50.4 166.99 52.28C166.08 53.36 164.45 53.79 163.11 54.04C162.99 54.05 159.76 54.35 160.5 53.48C161.89 51.83 161.17 47.87 161.09 45.88C160.93 41.99 160.78 38.07 160.75 34.18C158.94 34.39 157.15 34.84 155.28 34.67C152.99 34.45 149.09 33.43 146.77 34.43C146.86 35.8 146.92 37.17 146.94 38.54C147.02 43.22 146.95 47.9 146.94 52.57C146.94 54.39 140.35 55.31 140.35 54.34C140.36 48.44 140.5 42.52 140.24 36.62C140.02 31.52 138.69 26.12 139.62 21.04C140.46 16.41 142.9 13.18 147.3 11.47C151.09 9.99 155.83 9.26 159.9 9.11C163.92 8.95 166.24 10.44 166.59 14.58C166.97 19.05 167.04 23.62 167.25 28.11C167.28 28.67 167.29 29.24 167.31 29.8C168.83 29.67 170.78 29.7 171.14 31.1C171.5 32.53 169.37 33.72 167.43 33.98ZM160.65 30.65C160.48 27.27 160.12 23.91 160.12 20.53C160.13 18.49 160.63 13.68 158.59 12.33C157.12 11.36 155.46 11.72 153.83 12.01C152.68 12.22 150.84 12.11 149.86 12.75C146.2 15.14 145.73 20.62 146 24.54C146.15 26.65 146.34 28.75 146.51 30.85C150.16 30.08 153.96 30.68 157.81 30.78C158.77 30.8 159.72 30.74 160.65 30.65ZM37.58 7.55C37.27 5.9 37.38 4.18 37.39 2.51C37.4 0.93 39.84 0.06 41.06 -0.05C42.44 -0.17 44.07 0.31 44.06 1.93C44.04 3.92 43.91 5.81 44.76 7.68C45.17 8.58 44.41 9.41 43.53 9.97C43.39 10.09 43.25 10.21 43.1 10.34C42.37 10.83 41.49 11.13 40.61 11.21C39.87 11.29 39.04 11.21 38.39 10.82C38.03 10.61 37.79 10.32 37.67 9.93C37.66 9.74 37.65 9.55 37.64 9.36C37.64 9.29 37.64 9.21 37.64 9.14C37.43 8.85 37.31 8.5 37.4 8.14C37.45 7.95 37.5 7.74 37.58 7.55ZM160.7 65.75C160.7 66.06 160.82 66.35 160.78 66.71L160.77 66.81L160.62 66.8C157.35 66.57 154.24 67.34 150.91 67.82C147.58 68.22 144.33 68.59 141.07 68.89C137.81 68.77 134.62 68.88 131.42 69.02L121.6 69.56C108.46 70.15 95.33 70.07 82.24 69.78C69.13 69.53 56.08 68.83 43.1 68.88C36.61 68.9 30.1 69.05 23.64 69.39C20.38 69.21 17.05 68.95 13.89 68.93C10.65 68.92 7.22 69.06 3.97 68.33C7.27 68.05 10.33 67.04 13.56 66.24C16.89 65.41 20.1 64.98 23.37 64.41C29.96 64.11 36.51 63.93 43.09 63.91C56.26 63.87 69.32 64.57 82.35 64.82C95.39 65.11 108.41 65.18 121.38 64.6L131.14 64.07C134.47 63.87 137.81 63.92 141.09 63.81C144.36 64.12 147.65 64.6 150.85 64.94C153.99 65.28 157.44 65.34 160.56 66.51C160.62 66.28 160.63 66 160.7 65.75Z" /></g></svg>