<svg xmlns="http://www.w3.org/2000/svg" viewBox="0 0 297 146" width="297" height="146">
	<defs>
		<clipPath clipPathUnits="userSpaceOnUse" id="cp1">
			<path d="M0 1L296 1L296 146L0 146Z" />
		</clipPath>
	</defs>
	<style>
		tspan { white-space:pre }
		.shp0 { fill: #000000 } 
		.shp1 { fill: #ffffff } 
	</style>
	<g id="Page 1" clip-path="url(#cp1)">
		<path id="Path 1" fill-rule="evenodd" class="shp0" d="M289.99 65.65C285.82 68.62 281.31 71 276.75 73.29C276.32 77.64 275.49 82.04 274.71 86.37C274.46 88.15 274.16 89.93 273.83 91.7C273.46 94.16 273.19 96.59 273.09 98.97C273.06 99.7 272.53 100.3 271.8 100.69C270.26 106.53 268.29 112.26 265.91 117.8C265.9 117.83 265.88 117.85 265.86 117.89C266.08 117.89 266.29 117.91 266.51 117.95C267.59 118.17 268.04 119.2 267.04 119.92C254.48 129 238.06 123.51 223.92 123.39C223.36 123.39 222.56 123.17 222.29 122.71C214.66 122.35 207.05 121.8 199.44 121.3C198.85 121.26 198.2 121.01 197.86 120.58C196.29 120.45 194.73 120.3 193.16 120.16L193.15 120.16C192.72 120.19 192.35 120.15 192.03 120.07C190.61 119.96 189.18 119.85 187.75 119.78C187.61 119.78 187.48 119.76 187.36 119.74C186.64 119.77 185.94 119.6 185.4 119.08C185.18 118.88 184.97 118.67 184.77 118.45C169.71 118.39 154.65 118.71 139.59 119.09C130.02 119.66 120.44 120.25 110.86 120.71C104.46 121.91 98.03 122.73 91.49 122.1C90.83 122.04 90.29 121.8 89.99 121.43C82.52 121.57 75.05 121.56 67.57 121.33C65.83 124.43 64.58 127.77 63.36 131.12C62.77 132.74 57.23 133.43 57.76 131.99C59.01 128.54 60.33 125.18 62.1 122C54.34 122.65 46.29 123.58 39.87 120.11C40.08 120.54 39.96 121.08 39.46 121.57C37.83 123.19 36.03 124.64 34.39 126.25C33.43 127.2 31.7 127.63 30.4 127.32C29.19 127.04 28.97 126.01 29.82 125.17C31.46 123.55 33.25 122.11 34.89 120.49C35.79 119.6 37.36 119.17 38.63 119.38C36.71 118.12 34.95 116.4 33.42 114.08C32.43 112.58 34.12 111.19 35.88 110.85C35.56 108.67 35.83 106.15 36.36 103.88C36.25 103.05 36.14 102.21 36.02 101.38C35.06 96.07 34.05 90.77 33.68 85.39C32.82 78.79 32.28 72.18 32.75 65.49C32.79 64.83 33.17 64.29 33.72 63.89C33.77 61.07 33.95 58.25 34.33 55.43C34.42 54.71 35.05 54.13 35.85 53.75C35.85 53.64 35.85 53.53 35.85 53.42C35.82 52.75 35.82 52.07 35.86 51.39C35.71 51.25 35.58 51.07 35.52 50.85C34.72 48 34.43 44.75 35.04 41.87C34.89 41.94 34.77 42 34.71 42.02C33.67 42.43 32.05 42.84 31.02 42.16C27.59 39.87 24.15 37.61 20.47 35.73C18.44 34.7 23.66 32.58 25.04 33.28C28.75 35.17 32.25 37.4 35.71 39.7C36.53 37.76 37.9 36.13 40 35.13C39.86 34.04 41.08 32.66 42.92 32.61C51.32 32.37 59.56 33.7 67.92 34.09C71.77 34.27 75.65 34.29 79.53 34.23C80.07 33.95 80.63 33.69 81.19 33.45C81.67 33.26 82.39 33.15 83.09 33.18C81.14 29.23 80.24 24.21 79.92 21.22C79.56 17.79 79.84 14.32 82.26 11.61C84.88 8.69 88.55 7.07 92.35 6.32C100.64 4.68 109.59 7.03 114.83 13.91C117.48 17.39 119.53 21.31 121.08 25.43C122.63 24.24 125.48 24.1 125.74 25.95C125.98 27.64 126.4 29.26 126.97 30.84C128.07 30.67 129.16 30.5 130.25 30.32C130.1 29.37 129.95 28.42 129.84 27.46C129.68 26.18 131.67 25.21 133.34 25.05C133.84 24.68 134.45 24.44 135.05 24.27C135.08 24.26 135.12 24.26 135.16 24.25C134.72 23.01 134.44 21.73 134.12 20.45C133.45 17.74 139.1 16.24 139.77 18.94C140.19 20.66 140.56 22.4 141.33 24C141.38 24.12 141.41 24.23 141.42 24.34C143.1 23.59 145.6 23.8 145.64 25.68C145.7 28.32 146.31 30.85 147.07 33.34C147.4 33.4 147.72 33.46 148.05 33.51C147.51 32.33 148.74 30.56 150.85 30.56C151.51 30.56 152.01 30.68 152.39 30.88L152.39 29.62C152.39 29 152.68 28.49 153.14 28.1C151.61 28.85 149.4 28.73 148.93 27.08C148.12 24.25 147.37 21.42 146.98 18.5C146.59 15.64 152.25 14.2 152.63 16.99C153.02 19.91 153.77 22.74 154.57 25.56C154.81 26.4 154.46 27.12 153.83 27.64C155.53 26.82 158.13 27.17 158.13 29.26L158.13 32.32C158.31 32.31 158.49 32.3 158.67 32.31C158.3 28.76 158.28 25.19 158.28 21.62C158.28 19.48 163.93 18.43 163.93 20.11C163.93 22.73 163.94 25.35 164.09 27.96C164.48 27.89 164.88 27.86 165.27 27.87C165.45 27.88 166.27 27.93 166.27 28.29L166.27 28.68C166.27 29.09 165.93 29.33 165.61 29.54C165.2 29.8 164.72 30.01 164.25 30.16C164.36 31.36 164.51 32.55 164.71 33.74C164.72 33.84 164.72 33.94 164.71 34.04C166.06 33.79 167.37 33.93 167.41 34.7L168.23 34.8C168.68 34.8 169.13 34.81 169.58 34.81L169.58 33.87C169.49 33.88 169.39 33.89 169.29 33.9C168.83 33.91 168.2 33.9 167.82 33.58C167.5 33.31 167.62 32.9 167.87 32.64C167.91 32.6 167.94 32.56 167.98 32.51C167.99 32.46 168.01 32.41 168.02 32.36C168.03 32.17 168.12 32.01 168.26 31.87C168.38 31.75 168.52 31.64 168.64 31.52C168.93 31.31 169.25 31.13 169.58 30.99L169.58 27.85C169.58 26.27 175.23 25.48 175.23 26.34L175.23 28.26C175.62 28.31 175.95 28.43 176.16 28.61C176.19 28.55 176.22 28.47 176.26 28.41C176.39 28.13 176.78 27.91 177.11 27.75C177.78 25.32 178.5 22.9 179.35 20.51C179.93 18.86 185.49 18.15 184.96 19.66C183.37 24.12 182.21 28.71 181.06 33.3C180.99 33.57 180.79 33.81 180.5 34.03C180.45 34.24 180.41 34.44 180.37 34.65C180.5 34.65 180.63 34.64 180.76 34.64C180.79 34.52 180.81 34.41 180.84 34.3C180.97 33.8 181.21 33.38 181.53 33.03C181.73 32.37 181.94 31.72 182.19 31.08C182.88 29.3 186.48 28.83 187.48 30.15C189.68 19.29 194.38 9.11 203.9 3.87C208.18 1.52 213.1 0.44 217.97 0.6C222.35 0.75 227.79 1.69 230.17 5.9C234.33 13.28 230.9 22.89 228.17 30.43C231.29 30.04 234.42 29.63 237.54 29.22C238.1 29.15 240.29 29.03 239.92 30.2C239.86 30.38 239.76 30.55 239.64 30.7C243.7 30.55 247.77 30.52 251.79 30.86C252.72 28.89 254.25 27.44 255.98 26.13C256.97 25.37 258.85 25.04 259.99 25.66C261.24 26.33 260.31 27.49 259.55 28.06C259.47 28.12 259.42 28.16 259.38 28.19C259.35 28.22 259.31 28.25 259.24 28.31C259.12 28.42 258.99 28.52 258.87 28.64C258.57 28.92 258.27 29.2 258.01 29.52C257.7 29.89 257.18 30.85 256.91 31.52C258.84 31.86 260.75 32.33 262.62 32.93L262.63 32.92C262.72 32.84 262.85 32.89 262.98 33.04C263.75 33.29 264.51 33.56 265.27 33.86C266.63 34.41 266.67 35.28 266.1 36.05C266.49 36.1 266.75 36.24 266.82 36.48C266.96 36.97 267.12 37.46 267.28 37.95C267.63 38.2 267.96 38.47 268.27 38.78C269.62 38.16 271.45 37.7 272.12 38.23C277.44 42.43 276.87 50.67 276.12 56.68C276.04 57.35 275.93 58.01 275.83 58.68C276.78 62 277.09 65.44 277.01 68.93C280.22 67.26 283.37 65.49 286.33 63.38C288.42 61.89 293.13 63.42 289.99 65.65ZM176.08 31.67C176 31.67 175.93 31.67 175.86 31.67C175.7 32.29 175.55 32.91 175.4 33.53C175.48 33.45 175.57 33.37 175.67 33.29C175.8 32.75 175.94 32.21 176.08 31.67ZM124.57 22.33C123.91 21.31 125.3 20.52 126.11 20.19C126.81 19.91 127.57 19.74 128.32 19.74C128.71 19.74 129.58 19.78 129.83 20.17C130.56 21.3 131.05 22.56 131.78 23.68C132.44 24.7 131.05 25.49 130.24 25.82C129.55 26.11 128.78 26.27 128.03 26.27C127.65 26.27 126.78 26.23 126.52 25.84C125.79 24.71 125.3 23.45 124.57 22.33ZM40.03 19.72C39.07 18.7 40.6 17.41 41.42 17.02C42.58 16.49 44.27 16.31 45.23 17.33C46.15 18.3 46.6 19.64 47.01 20.89C47.44 22.18 45.61 23.15 44.66 23.41C43.59 23.69 41.8 23.69 41.37 22.4C40.99 21.27 40.8 20.53 40.03 19.72ZM63.69 25.82C67.47 25.82 63.01 28.38 61.32 28.38C57.54 28.38 62.01 25.82 63.69 25.82ZM244.03 24.35C243.89 23.85 244.27 23.43 244.58 23.12C244.71 22.99 244.85 22.85 244.98 22.72C244.99 22.7 245.01 22.68 245.03 22.66C245.05 22.64 245.06 22.62 245.08 22.6C245.34 22.28 245.58 21.95 245.78 21.58C246.05 21.06 246.79 20.68 247.29 20.47C247.98 20.18 248.75 20.01 249.5 20.03C250.01 20.04 250.65 20.14 251.03 20.53C251.39 20.91 251.25 21.31 251.04 21.71C250.57 22.6 249.83 23.35 249.12 24.06C248.63 24.55 247.87 24.84 247.23 25.02C246.56 25.2 245.82 25.28 245.12 25.13C244.69 25.04 244.15 24.83 244.03 24.35ZM270.42 35.14C272.87 33.09 275.3 30.99 277.2 28.39C277.89 27.45 279.45 27.1 280.52 26.9C280.66 26.88 283.33 26.58 282.76 27.36C280.71 30.15 278.15 32.44 275.51 34.65C274.51 35.48 272.98 35.85 271.72 35.97C271.3 36.01 269.42 35.97 270.42 35.14ZM296.09 91.97C295.92 93.31 294.21 94.25 292.97 94.25L283.23 94.25C282.13 94.25 280.44 93.88 280.62 92.4C280.78 91.06 282.5 90.12 283.74 90.12L293.48 90.12C294.58 90.12 296.27 90.49 296.09 91.97ZM116.36 122.91C115.28 125.46 114.4 128.05 113.63 130.71C113.18 132.28 107.61 133.08 108.03 131.61C108.8 128.96 109.69 126.36 110.76 123.82C111.22 122.75 113.04 122.31 114.04 122.15C114.42 122.09 116.8 121.86 116.36 122.91ZM124.18 127.67C124.18 128.04 124.15 128.38 124.08 128.73C124 129.16 123.81 129.41 123.51 129.73C123.15 130.13 122.41 130.38 121.92 130.55C121.22 130.8 120.47 130.98 119.73 131.05C119.31 131.09 118.69 131.16 118.3 130.93C118.05 130.78 118.14 130.59 118.27 130.42C118.26 130.43 118.25 130.44 118.24 130.45C118.37 130.28 118.44 130.08 118.49 129.88C118.52 129.65 118.53 129.42 118.53 129.19C118.53 128.8 118.93 128.57 119.21 128.41C119.81 128.05 120.48 127.82 121.15 127.64C121.81 127.46 122.51 127.33 123.2 127.34C123.34 127.34 124.18 127.34 124.18 127.67ZM239.15 144.04C239.58 144.73 234.37 146.93 233.5 145.56C231.53 142.45 229.35 139.48 227.66 136.2C227.22 135.35 232.6 133.32 233.3 134.69C234.99 137.97 237.18 140.93 239.15 144.04ZM243.83 134.69C244.4 135.83 242.13 136.84 241.43 137.03C240.32 137.33 238.77 137.38 238.18 136.2C237.4 134.64 236.62 133.08 235.84 131.52C235.27 130.38 237.54 129.37 238.24 129.18C239.36 128.89 240.9 128.84 241.49 130.01C242.27 131.57 243.05 133.13 243.83 134.69ZM14.66 87.92C15.02 89.25 13.43 90.3 12.34 90.55C9.37 91.27 6.33 91.7 3.38 92.5C2.31 92.8 0.41 92.73 0.05 91.38C-0.31 90.03 1.3 89.04 2.37 88.75C5.32 87.94 8.36 87.51 11.33 86.8C12.42 86.53 14.29 86.55 14.66 87.92Z" />
		<path id="Path 2" fill-rule="evenodd" class="shp1" d="M87.46 95.62C88.01 98.44 89.15 101.95 86.74 104.18C85.35 105.47 82.99 106.09 81.15 105.68C79.49 105.32 79.13 103.92 80.37 102.78C80.54 102.62 79.94 99.67 79.8 98.98C79.47 97.3 79.34 95.71 79.36 94.01C79.41 88.85 79.76 83.77 79.34 78.62C79.24 77.37 79.14 76.12 79.03 74.87C77.99 77.6 76.97 80.33 76.42 83.21C75.9 85.92 75.42 88.58 74.47 91.14C74.52 91.33 74.58 91.52 74.64 91.71C74.95 92.67 73.87 93.62 73.17 94.05C72.64 94.37 72.08 94.66 71.5 94.9C70.16 95.47 67.73 96.02 66.44 94.91C66.08 94.77 65.85 94.55 65.93 94.19C65.79 93.69 66.02 93.19 66.4 92.76C65.39 89.5 64.52 86.3 62.76 83.32C61 80.31 59.65 77.16 58.35 73.93C58.24 73.64 58.12 73.34 58.01 73.05C58.02 73.87 58.03 74.68 58.06 75.5C58.28 83.81 58.88 92.12 58.9 100.44C58.91 103.22 53.67 104.46 51.85 103C51.43 102.67 51.02 102.33 50.7 101.9C49.95 100.9 50.17 99.91 50.88 99.12C50.76 91.1 50.13 83.09 50.04 75.07C49.99 70.9 49.88 66.85 49.28 62.73C48.74 59.08 48.53 55.63 50.16 52.21C51.51 49.38 58.36 49.06 57.97 52.14C61.35 58.81 63.85 65.81 66.63 72.74C67.58 75.13 68.77 77.33 69.94 79.56C70.77 77.17 71.75 74.83 72.56 72.43C74.68 66.16 76.53 59.9 77.85 53.43C77.79 53.25 77.72 53.08 77.65 52.91C77.36 52.22 77.71 51.54 78.4 50.97C79.5 49.05 86.49 47.93 86.1 50.04C86.01 50.52 85.91 51 85.82 51.47C87.33 55.68 86.6 60.19 86.54 64.58C86.47 70 87.34 75.38 87.5 80.8C87.65 85.61 86.54 90.9 87.46 95.62ZM104.77 94.83C105.06 96.71 105.98 99.93 104.66 101.6C103.63 102.91 101.56 103.41 100.01 103.7C99.84 103.73 96.03 104.11 96.88 103.04C98.21 101.35 96.92 97.76 96.7 95.81C96.23 91.66 96.94 87.42 96.4 83.27C95.87 79.22 94.85 75.48 94.92 71.36C95 67.07 95.23 62.79 94.6 58.53C94.32 56.62 102.29 54.95 102.51 56.41C103.19 61.04 102.8 65.66 102.82 70.31C102.84 74.37 104.23 78.15 104.38 82.16C104.54 86.36 104.13 90.67 104.77 94.83ZM139.71 93.32C140.27 95.74 140.95 98.58 138.86 100.47C136.98 102.19 134.73 103.29 132.32 104.09C127.66 105.64 122.11 106.55 117.18 105.96C109.51 105.05 113.03 97.96 112.34 92.66C112.03 90.34 120 88.67 120.24 90.54C120.67 93.82 118.48 98.62 120.48 101.49C121.58 103.05 124.38 102.55 126.02 102.42C127.65 102.28 130.45 102.2 131.65 100.87C133.61 98.69 131.28 94.37 131.23 91.77C131.13 86.9 133.44 76.44 125.68 75.86C121.13 75.52 112.17 78.36 109.99 72.34C109 69.63 109.53 66.83 109.4 64.03C109.3 61.59 108.62 59.25 108.75 56.79C109 51.63 113.92 49.09 118.39 47.91C123.23 46.63 140.38 44.84 137.93 54.12C137.37 56.28 129.57 57.45 130.11 55.41C131.3 50.87 125.12 50.26 122 50.4C121.21 50.43 120.55 50.46 119.84 50.58C119.94 50.59 118.49 50.98 118.21 51.27C116.65 52.85 116.46 55.01 116.7 57.13C117.02 59.98 117.26 62.62 117.25 65.5C117.25 67.77 117.28 71.56 120.06 72.35C125.45 73.89 133.18 69.84 137.34 75.46C141.18 80.65 138.34 87.43 139.71 93.32ZM173.43 89.86C173.67 93.83 174.08 98.53 172.66 102.3C171.5 105.37 163.59 105.71 165.15 101.56C165.88 99.62 165.62 96.64 165.59 94.58C165.56 92.23 165.41 89.9 165.19 87.57C164.94 84.78 164.73 82 164.55 79.22C160.47 78.65 156.37 78.98 152.28 79.25C152.03 82.78 151.75 86.36 152.11 89.84C152.48 93.47 154.02 98.04 152.92 101.62C152.32 103.61 144.65 104.58 145.13 103.02C145.74 101.03 145.06 98.34 144.76 96.33C144.45 94.15 144.08 91.95 144.1 89.74C144.13 85.43 144.5 81.13 144.62 76.82C144.9 67.79 143.37 58.82 143.71 49.79C143.8 47.49 151.66 46.5 151.62 47.67C151.26 57.02 152.9 66.29 152.49 75.64C156.43 75.5 160.37 75.11 164.3 75.14C164.29 74.99 164.28 74.85 164.28 74.7C163.9 67.44 162.93 60.26 162.9 52.97C162.89 49.65 170.87 48.3 170.89 52.28C170.92 59.92 172.07 67.46 172.31 75.08C172.47 80.02 173.13 84.92 173.43 89.86ZM212.8 100.29C213.89 103.9 206 106.05 204.9 102.4C203.22 96.85 200.32 91.76 198.58 86.23C197.56 82.98 196.1 79.97 194.57 76.98C192.21 81.03 189.59 84.89 186.38 88.35C186.42 92.58 186.3 96.82 185.91 101.05C185.73 103.1 181.92 103.81 180.43 103.81L180.23 103.81C178.98 103.81 177.09 103.01 178.05 101.51C178.35 97.97 178.47 94.43 178.47 90.9C177.98 90.68 177.76 90.31 178.36 89.69C178.39 89.65 178.43 89.62 178.46 89.59C178.32 75.73 176.35 61.9 175.86 48.04C175.75 44.95 183.68 43.36 183.77 45.92C184.16 57.1 185.49 68.25 186.09 79.42C187.9 76.41 189.53 73.27 191.13 70.11C190.84 69.1 191.43 68.2 192.42 67.56C192.57 67.26 192.73 66.96 192.87 66.66C194.93 62.61 196.87 58.54 198.75 54.4C200.32 50.96 202.21 48.13 205.21 45.79C206.64 44.68 209.03 44.17 210.8 44.29C212.43 44.4 212.48 45.31 211.32 46.21C208.02 48.78 206.78 52.84 205.1 56.49C203.26 60.5 201.21 64.44 199.19 68.37C201.69 73.66 204.59 78.54 206.48 84.11C208.36 89.6 211.12 94.73 212.8 100.29ZM249.47 78.2C249.55 82.06 249.6 85.92 249.76 89.78C249.87 92.48 250.87 97.87 248.95 100.13C247.85 101.42 245.9 101.93 244.3 102.23C244.15 102.25 240.28 102.6 241.16 101.56C242.84 99.58 241.97 94.84 241.88 92.46C241.68 87.8 241.51 83.11 241.47 78.44C239.3 78.7 237.16 79.24 234.92 79.03C232.17 78.77 227.49 77.54 224.73 78.74C224.83 80.38 224.91 82.02 224.94 83.67C225.02 89.27 224.94 94.88 224.94 100.48C224.93 102.66 217.03 103.75 217.03 102.6C217.04 95.52 217.22 88.44 216.91 81.37C216.63 75.26 215.04 68.79 216.15 62.71C217.16 57.16 220.09 53.29 225.35 51.24C229.9 49.47 235.58 48.59 240.46 48.41C245.27 48.22 248.05 50 248.47 54.96C248.93 60.32 249.01 65.8 249.26 71.17C249.29 71.85 249.31 72.53 249.33 73.2C251.15 73.04 253.49 73.08 253.92 74.76C254.35 76.47 251.8 77.9 249.47 78.2ZM237.95 74.37C239.1 74.4 240.23 74.33 241.35 74.22C241.14 70.18 240.72 66.15 240.72 62.1C240.72 59.66 241.33 53.89 238.88 52.27C237.12 51.1 235.13 51.54 233.18 51.89C231.8 52.14 229.6 52.01 228.42 52.77C224.04 55.63 223.48 62.2 223.8 66.9C223.97 69.43 224.21 71.94 224.41 74.45C228.78 73.54 233.34 74.26 237.95 74.37ZM94.88 50.47C94.46 50.22 94.17 49.87 94.02 49.4C94.01 49.17 94 48.95 93.99 48.72C93.99 48.63 93.98 48.54 93.98 48.45C93.73 48.11 93.58 47.69 93.7 47.26C93.76 47.03 93.81 46.77 93.91 46.54C93.54 44.57 93.67 42.51 93.69 40.5C93.7 38.61 96.62 37.56 98.07 37.44C99.72 37.29 101.68 37.87 101.67 39.81C101.65 42.19 101.49 44.47 102.51 46.7C103 47.77 102.09 48.77 101.04 49.44C100.87 49.59 100.69 49.73 100.52 49.88C99.65 50.48 98.59 50.84 97.54 50.94C96.65 51.02 95.66 50.94 94.88 50.47Z" />
	</g>
</svg>