<svg
	 viewBox="0 0 50 49" width="50" height="49">
	
		<path class="shp0" d="M34.64 49L32.41 49C22.6 47.84 15.42 43.29 10.19 37.46C4.95 31.61 0.8 24.08 0 13.97L0 11.25C0.18 9.41 1.09 8.15 2.13 7.08C3.43 5.75 5.39 4.04 7.18 3.97C8.5 3.93 10.74 4.88 11.64 6.11C12.42 7.17 12.83 9.29 13.19 10.86C13.56 12.46 14.39 14.76 14.16 16.3C13.81 18.69 10.63 19.7 9.7 21.44C12.8 28.88 17.88 34.35 24.64 38.13C26.34 37.2 27.83 34.4 30.18 34.35C31.03 34.32 32.12 34.77 32.99 35.03C33.94 35.31 34.77 35.68 35.61 36C37.02 36.53 39.52 37.24 40.37 38.42C41.23 39.64 41.73 41.64 41.53 42.88C41.14 45.35 37.08 48.09 34.64 49ZM25.06 3.39C36.96 3.39 46.6 13.03 46.6 24.93L49.66 24.93C49.66 11.35 38.65 0.33 25.06 0.33L25.06 3.39ZM25.06 18.99L25.06 22.09C26.63 22.09 27.9 23.37 27.9 24.93L31.01 24.93C31.01 21.65 28.35 18.99 25.06 18.99ZM25.06 12.83C31.75 12.83 37.17 18.25 37.17 24.94L40.35 24.94C40.35 16.5 33.5 9.65 25.06 9.65L25.06 12.83Z" />
	
</svg>