<svg
	 viewBox="0 0 201 154" width="201" height="154">
	
	<style>tspan { white-space:pre }.shp0 { fill: #63d1bb } .shp1 { fill: #ffffff } </style>
	
		<path class="shp0" d="M193.91 36.52C193.91 36.52 192.07 22.5 186.34 16.36C179.08 8.28 170.99 8.23 167.26 7.77C140.61 5.72 100.65 5.72 100.65 5.72L100.55 5.72C100.55 5.72 60.6 5.72 33.94 7.77C30.21 8.22 22.13 8.28 14.86 16.36C9.18 22.55 7.29 36.52 7.29 36.52C7.29 36.52 5.5 52.94 5.5 69.36L5.5 84.76C5.5 101.18 7.39 117.6 7.39 117.6C7.39 117.6 9.24 131.62 14.96 137.76C22.23 145.84 31.69 145.58 35.94 146.45C51.18 147.99 100.65 148.5 100.65 148.5C100.65 148.5 140.66 148.45 167.31 146.4C171.04 145.94 179.12 145.89 186.39 137.81C192.07 131.67 193.96 117.65 193.96 117.65C193.96 117.65 195.85 101.23 195.85 84.81L195.85 69.41C195.8 52.94 193.91 36.52 193.91 36.52Z" />
		<path class="shp1" d="M100.63 154L100.6 154C98.57 153.98 50.7 153.46 35.39 151.92L35.11 151.9L34.84 151.84C34.29 151.73 33.5 151.63 32.58 151.51C27.58 150.85 18.27 149.63 10.91 141.47C4.2 134.24 2.15 119.93 1.94 118.32L1.93 118.23C1.85 117.55 0 101.3 0 84.76L0 69.36C0 52.83 1.75 36.6 1.82 35.92L1.84 35.78C2.06 34.17 4.15 19.92 10.79 12.66C18.78 3.79 27.85 2.87 32.21 2.42C32.6 2.38 32.95 2.35 33.27 2.3L33.52 2.28C60.08 0.24 100.15 0.22 100.55 0.22L100.65 0.22C101.06 0.22 141.12 0.24 167.68 2.28L167.93 2.3C168.25 2.35 168.61 2.38 168.99 2.42C173.35 2.86 182.41 3.79 190.4 12.64C197.11 19.88 199.15 34.19 199.37 35.8L199.37 35.88C199.45 36.57 201.3 52.8 201.36 69.39L201.36 84.81C201.36 101.35 199.5 117.6 199.43 118.28L199.41 118.38C199.2 120 197.1 134.29 190.45 141.51C182.47 150.38 173.4 151.3 169.04 151.74C168.66 151.78 168.3 151.82 167.98 151.86L167.73 151.88C141.18 153.92 101.06 154 100.66 154L100.63 154ZM36.74 141C51.7 142.46 99.17 142.98 100.68 143C101.99 143 140.95 142.9 166.77 140.93C167.13 140.88 167.51 140.84 167.93 140.8C171.6 140.43 177.15 139.87 182.3 134.13L182.36 134.07C186.01 130.13 188.06 120.22 188.51 116.97C188.62 115.94 190.36 100.25 190.36 84.81L190.36 69.41C190.31 53.89 188.56 38.16 188.45 37.19C187.81 32.43 185.59 23.62 182.32 20.12L182.25 20.04C177.1 14.3 171.55 13.74 167.88 13.37C167.46 13.32 167.08 13.29 166.72 13.24C140.59 11.25 101.05 11.22 100.66 11.22L100.55 11.22C100.16 11.22 60.62 11.25 34.49 13.24C34.13 13.29 33.75 13.32 33.33 13.37C29.66 13.74 24.11 14.3 18.95 20.04L18.92 20.08C15.26 24.07 13.21 33.93 12.75 37.19C12.63 38.37 11 53.98 11 69.36L11 84.76C11 100.26 12.75 115.96 12.86 116.93C13.5 121.69 15.72 130.51 18.99 134.01L19.06 134.08C23.7 139.25 29.66 140.03 34.02 140.6C34.98 140.72 35.89 140.84 36.74 141ZM136.36 77.08L76.87 112.79L76.87 41.38L136.36 77.08Z" />
	
</svg>