<svg xmlns="http://www.w3.org/2000/svg" viewBox="0 0 35 35" width="35" height="35"><defs><clipPath clipPathUnits="userSpaceOnUse" id="cp1"><path d="M0 0L35 0L35 35L0 35Z" /></clipPath></defs><style>tspan { white-space:pre }.shp0 { fill: #231f20 } </style><g clip-path="url(#cp1)"><path fill-rule="evenodd" class="shp0" d="M35.2 32.8C35.2 34.02 34.21 35 33 35C32.29 35 31.86 34.74 31.46 34.34L24.62 27.51C22.05 29.44 18.86 30.6 15.4 30.6C6.89 30.6 0 23.71 0 15.2C0 6.69 6.89 -0.2 15.4 -0.2C23.9 -0.2 30.8 6.69 30.8 15.2C30.8 18.67 29.64 21.85 27.71 24.43L34.54 31.26C35.08 31.8 35.2 32.32 35.2 32.8ZM15.4 26.2C21.47 26.2 26.4 21.28 26.4 15.2C26.4 9.12 21.47 4.2 15.4 4.2C9.32 4.2 4.4 9.12 4.4 15.2C4.4 21.28 9.32 26.2 15.4 26.2Z" /></g></svg>