<svg viewBox="0 0 120 119" width="120" height="119">
<path d="M44.37 6.33C44.37 2.71 51.29 -0.24 59.83 -0.24C68.37 -0.24 75.28 2.71 75.28 6.33C75.28 9.97 68.37 12.91 59.83 12.91C51.29 12.91 44.37 9.97 44.37 6.33ZM120 40.84L120 87.12L65.11 119L65.11 72.71L120 40.84ZM115.06 31.81L60.36 63.58L5.29 31.6L17.2 24.7L17.2 29.54C17.2 33.18 24.12 36.12 32.65 36.12C41.19 36.12 48.1 33.18 48.1 29.54L48.1 21.42L48.06 21.42C47.54 24.85 40.85 27.57 32.65 27.57C24.12 27.57 17.2 24.62 17.2 21C17.2 17.36 24.12 14.42 32.65 14.42C33.37 14.42 34.07 14.46 34.76 14.49L44.37 8.91L44.37 14.88C44.37 15.76 44.78 16.59 45.5 17.35C46.09 17.72 46.58 18.12 46.97 18.52C49.74 20.29 54.47 21.46 59.83 21.46C68.37 21.46 75.28 18.51 75.28 14.88L75.28 8.71L85.23 14.48C85.88 14.44 86.55 14.42 87.23 14.42C95.78 14.42 102.69 17.36 102.69 21C102.69 24.62 95.78 27.57 87.23 27.57C79.03 27.57 72.35 24.85 71.83 21.42L71.78 21.42L71.78 29.54C71.78 33.18 78.7 36.12 87.23 36.12C95.78 36.12 102.69 33.18 102.69 29.54L102.69 24.64L115.06 31.81ZM75.41 36.85L75.36 36.85C74.84 40.28 68.15 43 59.95 43C51.75 43 45.06 40.28 44.54 36.85L44.49 36.85L44.49 44.97C44.49 48.6 51.42 51.54 59.95 51.54C68.49 51.54 75.41 48.6 75.41 44.97L75.41 36.85ZM0 40.42L54.88 72.3L54.88 118.99L0 87.12L0 40.42Z" /></svg>