<svg viewBox="0 0 47 40" width="47" height="40">
<path d="M45.28 10.35C44.38 10.93 43.19 11.23 42.02 11.54C42.52 13.51 42.7 15.79 42.61 18.35C42.52 18.71 42.4 19.03 42.46 19.54C42.07 19.99 42.11 20.86 41.72 21.32C41.74 22.13 41.11 22.28 41.13 23.1C40.5 24.1 39.99 25.22 39.35 26.21C38.69 27.17 38.08 28.2 37.27 29.02C36.86 29.45 36.62 30.05 36.09 30.36C35.9 30.96 35.61 31.46 35.2 31.84C34.03 33.93 31.89 35.05 30.16 36.58C29.03 37.08 28.2 37.88 27.05 38.36C26.18 39.07 24.83 39.31 23.79 39.84C23.39 39.84 22.94 39.79 22.75 39.99C21.51 39.95 20.07 40.1 19.04 39.84L17.12 39.84C15.29 39.65 13.28 39.63 11.49 39.4C9.74 39.11 8.11 38.73 6.45 38.36C5.13 37.66 3.68 37.07 2.59 36.14C2.21 35.98 1.88 35.76 1.7 35.4C1.4 35.21 0.95 35.16 0.96 34.66C0.3 34.35 -0.19 33.7 0.07 32.88C0.32 32.63 0.28 32.57 0.52 32.43C1.04 32.14 2.08 32.24 2.74 31.99C3.94 32 4.74 31.62 5.85 31.54C7.64 31.01 9.78 30.83 11.34 30.06C11.85 29.68 12.32 29.26 12.52 28.58C11.24 28.38 9.97 28.17 8.82 27.84C7.72 27.11 6.56 26.45 5.56 25.61C5.53 25.1 5.03 25.05 4.96 24.58C4.75 24.02 4.75 22.91 4.96 22.36C5.45 21.75 6.66 21.88 7.48 21.61C7.91 21.53 7.26 21.38 7.34 21.17C7.28 20.98 7.08 20.94 7.04 20.73C6.86 20.41 6.48 20.3 6.45 19.84C5.96 19.28 5.53 18.68 5.26 17.91C4.53 16.61 3.66 15.46 3.78 13.32C4.13 12.72 4.72 12.38 5.56 12.28C5.07 11.68 4.63 11.03 4.37 10.2C4.35 7.67 5.07 5.86 5.41 3.68C5.54 3.71 5.55 3.63 5.56 3.53C5.58 2.96 6.16 2.95 6.3 2.5C6.5 2.15 6.56 1.67 7.19 1.76C8.32 1.71 7.91 3.2 8.67 3.53C8.92 4.32 9.59 4.69 10.01 5.31C11.04 6.35 12.13 7.34 13.56 7.98C14.77 9 16.27 9.48 17.71 10.2C19.04 10.87 20.36 11.89 22.01 12.13C22.41 11.96 22.01 11.36 22.01 11.09C22.06 10.75 22.24 10.54 22.16 10.06C22.28 10.08 22.29 10 22.3 9.91C22.36 9.22 22.95 9.07 23.04 8.43C24.39 7.25 25.52 5.86 27.34 5.16C28.81 4.11 31.1 3.89 33.42 3.68C34.81 3.77 36.06 4 37.12 4.42C37.81 4.28 38.34 3.74 38.9 3.39C39.13 3.24 39.35 3.14 39.64 2.94C39.73 2.89 39.62 2.8 39.79 2.79C39.82 2.79 39.92 2.81 39.94 2.79C40.91 2 41.57 0.84 42.46 -0.02C42.57 -0.16 42.73 -0.25 42.91 -0.32C43.5 -0.37 43.99 -0.32 44.09 0.13C44.43 0.5 44.15 1.17 43.94 1.46C43.7 1.81 43.61 2.31 43.35 2.64C43.41 3.7 43.02 4.29 42.91 5.16C42.55 5.8 42.15 6.39 41.87 7.09L44.09 7.09C45.09 7.28 46.45 7.1 46.91 7.83C47.27 9.19 46.33 9.98 45.28 10.35ZM40.68 4.72C40.28 4.82 40.12 5.14 39.79 5.31C39.62 5.53 39.18 5.49 39.2 5.91C39.25 6.1 39.46 6.14 39.5 6.35C40.22 6.13 40.42 5.4 40.68 4.72ZM40.09 13.02C39.81 10.33 38.85 8.33 37.27 6.94C36.7 6.83 36.36 6.47 35.94 6.2C35.41 6.14 34.95 6.01 34.46 5.91L31.94 5.91C31.29 6.05 30.62 6.16 29.86 6.2C29.29 6.51 28.63 6.75 27.94 6.94C27.42 7.31 26.89 7.67 26.31 7.98C25.38 8.88 24.3 9.63 23.79 10.94C23.37 12.05 24.01 13.29 23.49 14.2C23.09 14.4 22.7 14.6 22.31 14.8C20.42 14.96 19.64 14 18.3 13.61C17.21 12.97 16.1 12.36 14.9 11.83C14 11 12.69 10.58 11.78 9.76C10.52 9.24 9.73 8.25 8.67 7.54C8.16 6.71 7.49 6.05 7.04 5.16C7.03 5.07 7.02 4.99 6.89 5.01C6.7 6.45 6.74 8.12 6.74 9.76C7.13 10.32 7.56 10.82 8.08 11.24C8.6 11.66 9.3 11.89 9.26 12.87C9.01 13.41 8.84 14.02 7.93 13.91C7.58 14.35 6.92 14.48 6.45 14.8C7.62 16.49 8.46 18.51 10.01 19.84C11.13 20.15 12.67 20.03 12.67 21.47C12.56 22.54 11.48 22.65 10.45 22.8C9.84 23.58 8.64 23.76 7.78 24.28C8.89 24.9 9.8 25.72 11.49 25.76C11.55 26.09 12.22 25.82 12.52 25.91C12.88 26 13.2 26.13 13.71 26.06C13.84 26.37 14.55 26.11 14.6 26.5C14.93 26.61 15.04 26.95 15.19 27.25C15.2 27.9 14.82 28.16 14.6 28.58C14.7 29.33 14.4 29.66 14.3 30.21C14.06 30.42 13.92 30.72 13.86 31.1C13.34 31.42 13.09 32.01 12.52 32.28C11.58 32.87 10.24 33.07 9.12 33.47C8.65 33.4 8.59 33.74 8.08 33.62C7.98 33.91 7.25 33.59 7.19 33.92C6.53 34.05 5.57 33.88 5.26 34.36C6.83 35.01 8.01 36.06 9.86 36.43C11.7 36.86 13.87 36.97 15.93 37.17C18.44 37.22 20.87 37.17 23.04 36.88C23.38 36.58 24.03 36.58 24.38 36.28C24.79 36.05 25.25 35.87 25.71 35.69C26.45 35.15 27.29 34.7 28.23 34.36C29.16 33.46 30.21 32.68 31.05 31.69C31.89 30.66 32.96 29.85 33.72 28.73C34.53 27.72 35.35 26.71 36.09 25.61C36.46 25.05 36.72 24.37 37.12 23.84C37.29 23.07 37.55 22.39 37.87 21.76C37.81 21.06 38.13 20.74 38.01 19.98C38.86 18.8 39.78 17.7 40.09 15.98C40.19 14.77 39.84 13.99 40.09 13.02ZM32.53 8.57C33.01 9.23 33.24 10.14 33.27 11.24C33.01 11.38 33.03 11.79 32.68 11.83C32.63 12.18 32.03 11.98 31.94 12.28C31.38 12.19 30.95 11.98 30.75 11.54C30.28 11.42 30.04 11.07 29.71 10.8C29.18 8.65 31.01 7.73 32.53 8.57Z" /></svg>