<svg viewBox="0 0 2300 68" width="2300" height="68">
<path d="M2242.5 0C2213.75 0 2213.75 28 2185.01 28C2156.26 28 2156.26 0 2127.51 0C2098.76 0 2098.76 28 2070.01 28C2041.26 28 2041.26 0 2012.51 0C1983.77 0 1983.77 28 1955.02 28C1926.27 28 1926.27 0 1897.52 0C1868.77 0 1868.77 28 1840.02 28C1811.27 28 1811.27 0 1782.53 0C1753.78 0 1753.78 28 1725.03 28C1696.28 28 1696.28 0 1667.53 0C1638.79 0 1638.79 28 1610.04 28C1581.29 28 1581.29 0 1552.54 0C1523.8 0 1523.8 28 1495.05 28C1466.3 28 1466.3 0 1437.56 0C1408.81 0 1408.81 28 1380.06 28C1351.32 28 1351.32 0 1322.57 0C1293.83 0 1293.83 28 1265.08 28C1236.33 28 1236.33 0 1207.58 0C1178.83 0 1178.83 28 1150.08 28C1121.33 28 1121.33 0 1092.58 0C1063.84 0 1063.84 28 1035.09 28C1006.34 28 1006.34 0 977.59 0C948.84 0 948.84 28 920.09 28C891.34 28 891.34 0 862.59 0C833.84 0 833.84 28 805.09 28C776.34 28 776.34 0 747.58 0C718.83 0 718.83 28 690.08 28C661.33 28 661.33 0 632.58 0C603.83 0 603.83 28 575.08 28C546.33 28 546.33 0 517.57 0C488.83 0 488.83 28 460.08 28C431.33 28 431.33 0 402.58 0C373.83 0 373.83 28 345.08 28C316.32 28 316.32 0 287.57 0C258.81 0 258.81 28 230.06 28C201.3 28 201.3 0 172.55 0C143.79 0 143.79 28 115.04 28C86.28 28 86.28 0 57.52 0C28.76 0 28.76 28 0 28L0 68L2300 68L2300 28C2271.25 28 2271.25 0 2242.5 0Z" /></svg>