<svg xmlns="http://www.w3.org/2000/svg" viewBox="0 0 2300 46" width="2300" height="46"><defs><clipPath clipPathUnits="userSpaceOnUse" id="cp1"><path d="M0 0L2300 0L2300 46L0 46Z" /></clipPath></defs><style>tspan { white-space:pre }.shp0 { fill: #ececed } </style><g clip-path="url(#cp1)"><path class="shp0" d="M2300 46C2281.97 46 2272.54 36.82 2264.97 29.45C2258.15 22.8 2253.22 18 2242.5 18C2231.79 18 2226.86 22.8 2220.03 29.45C2212.46 36.82 2203.04 46 2185.01 46C2166.97 46 2157.55 36.82 2149.98 29.45C2143.15 22.8 2138.22 18 2127.51 18C2116.79 18 2111.87 22.8 2105.04 29.45C2097.47 36.82 2088.05 46 2070.01 46C2051.98 46 2042.56 36.82 2034.98 29.45C2028.16 22.8 2023.23 18 2012.51 18C2001.8 18 1996.87 22.8 1990.04 29.45C1982.47 36.82 1973.05 46 1955.02 46C1936.98 46 1927.56 36.82 1919.99 29.45C1913.17 22.8 1908.24 18 1897.52 18C1886.81 18 1881.88 22.8 1875.05 29.45C1867.48 36.82 1858.06 46 1840.02 46C1821.99 46 1812.57 36.82 1804.99 29.45C1798.17 22.8 1793.24 18 1782.53 18C1771.81 18 1766.88 22.8 1760.06 29.45C1752.48 36.82 1743.06 46 1725.03 46C1706.99 46 1697.57 36.82 1690 29.45C1683.17 22.8 1678.24 18 1667.53 18C1656.82 18 1651.89 22.8 1645.06 29.45C1637.49 36.82 1628.07 46 1610.04 46C1592.01 46 1582.58 36.82 1575.01 29.45C1568.19 22.8 1563.26 18 1552.54 18C1541.83 18 1536.9 22.8 1530.08 29.45C1522.51 36.82 1513.08 46 1495.05 46C1477.02 46 1467.6 36.82 1460.03 29.45C1453.2 22.8 1448.27 18 1437.56 18C1426.84 18 1421.92 22.8 1415.09 29.45C1407.52 36.82 1398.1 46 1380.06 46C1362.03 46 1352.61 36.82 1345.04 29.45C1338.22 22.8 1333.29 18 1322.57 18C1311.86 18 1306.93 22.8 1300.11 29.45C1292.53 36.82 1283.11 46 1265.08 46C1247.04 46 1237.62 36.82 1230.05 29.45C1223.22 22.8 1218.29 18 1207.58 18C1196.86 18 1191.93 22.8 1185.11 29.45C1177.54 36.82 1168.11 46 1150.08 46C1132.05 46 1122.62 36.82 1115.05 29.45C1108.23 22.8 1103.3 18 1092.58 18C1081.87 18 1076.94 22.8 1070.12 29.45C1062.54 36.82 1053.12 46 1035.09 46C1017.06 46 1007.63 36.82 1000.06 29.45C993.24 22.8 988.31 18 977.59 18C966.87 18 961.95 22.8 955.12 29.45C947.55 36.82 938.12 46 920.09 46C902.06 46 892.63 36.82 885.06 29.45C878.24 22.8 873.31 18 862.59 18C851.87 18 846.94 22.8 840.12 29.45C832.54 36.82 823.12 46 805.09 46C787.05 46 777.63 36.82 770.06 29.45C763.23 22.8 758.3 18 747.58 18C736.87 18 731.94 22.8 725.11 29.45C717.54 36.82 708.12 46 690.08 46C672.05 46 662.62 36.82 655.05 29.45C648.23 22.8 643.3 18 632.58 18C621.86 18 616.93 22.8 610.11 29.45C602.54 36.82 593.11 46 575.08 46C557.04 46 547.62 36.82 540.05 29.45C533.22 22.8 528.29 18 517.57 18C506.86 18 501.93 22.8 495.1 29.45C487.53 36.82 478.11 46 460.08 46C442.04 46 432.62 36.82 425.05 29.45C418.22 22.8 413.29 18 402.58 18C391.86 18 386.93 22.8 380.11 29.45C372.53 36.82 363.11 46 345.08 46C327.04 46 317.62 36.82 310.04 29.45C303.22 22.8 298.29 18 287.57 18C276.85 18 271.92 22.8 265.09 29.45C257.52 36.82 248.09 46 230.06 46C212.02 46 202.6 36.82 195.02 29.45C188.2 22.8 183.27 18 172.55 18C161.83 18 156.9 22.8 150.07 29.45C142.5 36.82 133.07 46 115.04 46C97 46 87.57 36.82 80 29.45C73.17 22.8 68.24 18 57.52 18C46.8 18 41.86 22.8 35.04 29.45C27.46 36.82 18.04 46 0 46L0 28C10.72 28 15.65 23.2 22.48 16.55C30.06 9.18 39.48 0 57.52 0C75.56 0 84.98 9.18 92.56 16.55C99.38 23.2 104.31 28 115.04 28C125.76 28 130.69 23.2 137.51 16.55C145.09 9.18 154.51 0 172.55 0C190.58 0 200.01 9.18 207.58 16.55C214.41 23.2 219.34 28 230.06 28C240.78 28 245.71 23.2 252.54 16.55C260.11 9.18 269.53 0 287.57 0C305.6 0 315.03 9.18 322.6 16.55C329.43 23.2 334.36 28 345.08 28C355.79 28 360.72 23.2 367.55 16.55C375.12 9.18 384.54 0 402.58 0C420.61 0 430.04 9.18 437.61 16.55C444.43 23.2 449.36 28 460.08 28C470.79 28 475.72 23.2 482.55 16.55C490.12 9.18 499.54 0 517.57 0C535.61 0 545.03 9.18 552.6 16.55C559.43 23.2 564.36 28 575.08 28C585.8 28 590.73 23.2 597.55 16.55C605.12 9.18 614.55 0 632.58 0C650.62 0 660.04 9.18 667.61 16.55C674.44 23.2 679.37 28 690.08 28C700.8 28 705.73 23.2 712.55 16.55C720.13 9.18 729.55 0 747.58 0C765.62 0 775.04 9.18 782.62 16.55C789.44 23.2 794.37 28 805.09 28C815.8 28 820.73 23.2 827.56 16.55C835.13 9.18 844.55 0 862.59 0C880.62 0 890.05 9.18 897.62 16.55C904.44 23.2 909.37 28 920.09 28C930.81 28 935.74 23.2 942.56 16.55C950.13 9.18 959.56 0 977.59 0C995.62 0 1005.05 9.18 1012.62 16.55C1019.44 23.2 1024.37 28 1035.09 28C1045.8 28 1050.73 23.2 1057.56 16.55C1065.13 9.18 1074.55 0 1092.58 0C1110.62 0 1120.04 9.18 1127.61 16.55C1134.43 23.2 1139.36 28 1150.08 28C1160.79 28 1165.72 23.2 1172.55 16.55C1180.12 9.18 1189.54 0 1207.58 0C1225.61 0 1235.04 9.18 1242.61 16.55C1249.43 23.2 1254.36 28 1265.08 28C1275.79 28 1280.72 23.2 1287.55 16.55C1295.12 9.18 1304.54 0 1322.57 0C1340.61 0 1350.03 9.18 1357.6 16.55C1364.42 23.2 1369.35 28 1380.06 28C1390.78 28 1395.71 23.2 1402.53 16.55C1410.1 9.18 1419.53 0 1437.56 0C1455.59 0 1465.01 9.18 1472.58 16.55C1479.41 23.2 1484.34 28 1495.05 28C1505.77 28 1510.7 23.2 1517.52 16.55C1525.09 9.18 1534.51 0 1552.54 0C1570.57 0 1580 9.18 1587.57 16.55C1594.39 23.2 1599.32 28 1610.04 28C1620.75 28 1625.68 23.2 1632.51 16.55C1640.08 9.18 1649.5 0 1667.53 0C1685.56 0 1694.98 9.18 1702.56 16.55C1709.38 23.2 1714.31 28 1725.03 28C1735.74 28 1740.67 23.2 1747.5 16.55C1755.07 9.18 1764.49 0 1782.53 0C1800.56 0 1809.98 9.18 1817.55 16.55C1824.38 23.2 1829.31 28 1840.02 28C1850.74 28 1855.67 23.2 1862.49 16.55C1870.07 9.18 1879.49 0 1897.52 0C1915.55 0 1924.98 9.18 1932.55 16.55C1939.37 23.2 1944.3 28 1955.02 28C1965.73 28 1970.66 23.2 1977.49 16.55C1985.06 9.18 1994.48 0 2012.51 0C2030.55 0 2039.97 9.18 2047.54 16.55C2054.37 23.2 2059.3 28 2070.01 28C2080.73 28 2085.66 23.2 2092.48 16.55C2100.05 9.18 2109.48 0 2127.51 0C2145.54 0 2154.96 9.18 2162.54 16.55C2169.36 23.2 2174.29 28 2185.01 28C2195.72 28 2200.65 23.2 2207.47 16.55C2215.05 9.18 2224.47 0 2242.5 0C2260.54 0 2269.96 9.18 2277.53 16.55C2284.36 23.2 2289.29 28 2300 28L2300 46Z" /></g></svg>